<svg width="37" height="32" viewBox="0 0 37 32" fill="none" xmlns="http://www.w3.org/2000/svg">
<g clip-path="url(#clip0_432_29265)">
<path d="M30.562 24.3571H27.4431V23.2181C27.4431 21.4824 26.0309 20.0703 24.2952 20.0703H21.5502V17.6842L22.9013 18.4128C23.0609 18.4985 23.2367 18.5414 23.4102 18.5414C23.6299 18.5414 23.8484 18.4739 24.0338 18.341C24.367 18.1021 24.5352 17.696 24.4677 17.2921L23.6149 12.1867L27.2245 8.576C27.5106 8.28886 27.6102 7.86672 27.4838 7.48207C27.3563 7.0985 27.0242 6.81779 26.6245 6.75779L21.6595 6.01743L19.4342 1.38993C19.2542 1.02243 18.8792 0.785645 18.4677 0.785645C18.0563 0.785645 17.6802 1.02243 17.5024 1.39207L15.277 6.01957L10.3109 6.761C9.91129 6.821 9.57915 7.10172 9.45165 7.48529C9.32522 7.86886 9.42594 8.29207 9.71094 8.57814L13.3206 12.1889L12.4677 17.2942C12.4002 17.6981 12.5684 18.1042 12.9017 18.3431C13.2349 18.5821 13.6752 18.6089 14.0331 18.4139L15.1217 17.8267V20.0714H12.3756C10.6409 20.0714 9.22879 21.4824 9.22879 23.2192V24.3571H6.10987C4.58094 24.3571 3.33594 25.601 3.33594 27.131V28.0117C3.33594 29.5417 4.58094 30.7856 6.10987 30.7856H30.5609C32.0909 30.7856 33.3359 29.5417 33.3359 28.0117V27.131C33.3359 25.601 32.0909 24.3571 30.562 24.3571ZM15.2267 11.0649L12.7302 8.56743L16.1545 8.05636C16.5059 8.00386 16.8081 7.781 16.9624 7.46064L18.4677 4.32886L19.9731 7.46064C20.1274 7.781 20.4295 8.00386 20.7809 8.05636L24.2042 8.56743L21.7077 11.0649C21.4634 11.3103 21.352 11.6585 21.4088 11.9992L21.9917 15.4889L18.9756 13.8614C18.6584 13.691 18.2759 13.6889 17.9577 13.8614L14.9406 15.4889L15.5234 11.9992C15.5824 11.6574 15.4709 11.3092 15.2267 11.0649ZM17.2302 16.6889L18.4667 16.0224L19.4663 16.5614C19.4384 16.6567 19.4074 16.7521 19.4074 16.8571V20.0714H17.2645V16.8571C17.2645 16.7971 17.2399 16.7456 17.2302 16.6889ZM11.3717 23.2192C11.3717 22.6653 11.8217 22.2142 12.3767 22.2142H16.1931H20.4788H24.2963C24.8502 22.2142 25.3013 22.6653 25.3013 23.2192V24.3571H11.3727V23.2192H11.3717ZM31.1931 28.0117C31.1931 28.3599 30.9102 28.6428 30.562 28.6428H6.10987C5.76165 28.6428 5.47879 28.3599 5.47879 28.0117V27.131C5.47879 26.7828 5.76165 26.4999 6.10987 26.4999H10.3002H26.3717H30.562C30.9102 26.4999 31.1931 26.7828 31.1931 27.131V28.0117Z" fill="#6D6E71"/>
</g>
<defs>
<clipPath id="clip0_432_29265">
<rect width="36" height="31" fill="white" transform="translate(0.335938 0.285645)"/>
</clipPath>
</defs>
</svg>
