<svg width="21" height="22" viewBox="0 0 21 22" fill="none" xmlns="http://www.w3.org/2000/svg">
<path d="M18.5269 2.97306H16.3039V1.49247C16.3039 1.08433 15.9739 0.75 15.5614 0.75C15.1489 0.75 14.8189 1.07999 14.8189 1.49247V2.97306H5.92671V1.49247C5.92671 1.08433 5.59673 0.75 5.18424 0.75C4.77176 0.75 4.44178 1.07999 4.44178 1.49247V2.97306H2.22306C0.994298 2.97306 0 3.96736 0 5.19612V19.2769C0 20.5057 0.994298 21.5 2.22306 21.5H18.5269C19.7557 21.5 20.75 20.5057 20.75 19.2769V5.19612C20.75 3.96736 19.7514 2.97306 18.5269 2.97306ZM19.2651 19.2769C19.2651 19.6851 18.9351 20.0194 18.5226 20.0194H2.22306C1.81492 20.0194 1.48059 19.6894 1.48059 19.2769V9.64224H19.2651V19.2769ZM19.2651 8.16164H1.48059V5.19612C1.48059 4.78798 1.81058 4.45365 2.22306 4.45365H4.44612V5.93424C4.44612 6.34238 4.7761 6.67671 5.18859 6.67671C5.60107 6.67671 5.93105 6.34673 5.93105 5.93424V4.45365H14.8233V5.93424C14.8233 6.34238 15.1533 6.67671 15.5658 6.67671C15.9782 6.67671 16.3082 6.34673 16.3082 5.93424V4.45365H18.5313C18.9394 4.45365 19.2738 4.78364 19.2738 5.19612L19.2651 8.16164Z" fill="#6D6E71"/>
<path d="M5.92716 11.1228H4.44657C4.03843 11.1228 3.7041 11.4528 3.7041 11.8653C3.7041 12.2778 4.03409 12.6077 4.44657 12.6077H5.92716C6.3353 12.6077 6.66963 12.2778 6.66963 11.8653C6.66963 11.4571 6.33964 11.1228 5.92716 11.1228Z" fill="#6D6E71"/>
<path d="M11.1156 11.1228H9.63504C9.2269 11.1228 8.89258 11.4528 8.89258 11.8653C8.89258 12.2778 9.22256 12.6077 9.63504 12.6077H11.1156C11.5238 12.6077 11.8581 12.2778 11.8581 11.8653C11.8581 11.4571 11.5238 11.1228 11.1156 11.1228Z" fill="#6D6E71"/>
<path d="M16.3041 11.1228H14.8235C14.4154 11.1228 14.0811 11.4528 14.0811 11.8653C14.0811 12.2778 14.411 12.6077 14.8235 12.6077H16.3041C16.7123 12.6077 17.0466 12.2778 17.0466 11.8653C17.0422 11.4571 16.7123 11.1228 16.3041 11.1228Z" fill="#6D6E71"/>
<path d="M5.92716 14.0884H4.44657C4.03843 14.0884 3.7041 14.4184 3.7041 14.8308C3.7041 15.2433 4.03409 15.5733 4.44657 15.5733H5.92716C6.3353 15.5733 6.66963 15.2433 6.66963 14.8308C6.66963 14.4184 6.33964 14.0884 5.92716 14.0884Z" fill="#6D6E71"/>
<path d="M11.1156 14.0884H9.63504C9.2269 14.0884 8.89258 14.4184 8.89258 14.8308C8.89258 15.2433 9.22256 15.5733 9.63504 15.5733H11.1156C11.5238 15.5733 11.8581 15.2433 11.8581 14.8308C11.8581 14.4184 11.5238 14.0884 11.1156 14.0884Z" fill="#6D6E71"/>
<path d="M16.3041 14.0884H14.8235C14.4154 14.0884 14.0811 14.4184 14.0811 14.8308C14.0811 15.2433 14.411 15.5733 14.8235 15.5733H16.3041C16.7123 15.5733 17.0466 15.2433 17.0466 14.8308C17.0422 14.4184 16.7123 14.0884 16.3041 14.0884Z" fill="#6D6E71"/>
<path d="M5.92716 17.054H4.44657C4.03843 17.054 3.7041 17.3839 3.7041 17.7964C3.7041 18.2089 4.03409 18.5389 4.44657 18.5389H5.92716C6.3353 18.5389 6.66963 18.2089 6.66963 17.7964C6.66963 17.3839 6.33964 17.054 5.92716 17.054Z" fill="#6D6E71"/>
<path d="M11.1156 17.054H9.63504C9.2269 17.054 8.89258 17.3839 8.89258 17.7964C8.89258 18.2089 9.22256 18.5389 9.63504 18.5389H11.1156C11.5238 18.5389 11.8581 18.2089 11.8581 17.7964C11.8581 17.3839 11.5238 17.054 11.1156 17.054Z" fill="#6D6E71"/>
<path d="M16.3041 17.054H14.8235C14.4154 17.054 14.0811 17.3839 14.0811 17.7964C14.0811 18.2089 14.411 18.5389 14.8235 18.5389H16.3041C16.7123 18.5389 17.0466 18.2089 17.0466 17.7964C17.0466 17.3839 16.7123 17.054 16.3041 17.054Z" fill="#6D6E71"/>
</svg>
