<svg width="8" height="8" viewBox="0 0 8 8" fill="none" xmlns="http://www.w3.org/2000/svg">
<path d="M4.6125 4L7.36875 1.24375C7.54375 1.06875 7.54375 0.791667 7.36875 0.63125C7.19375 0.45625 6.91667 0.45625 6.75625 0.63125L4 3.37292L1.24375 0.63125C1.06875 0.45625 0.791667 0.45625 0.63125 0.63125C0.45625 0.80625 0.45625 1.08333 0.63125 1.24375L3.37292 4L0.63125 6.74167C0.45625 6.91667 0.45625 7.19375 0.63125 7.35417C0.71875 7.45625 0.820833 7.5 0.9375 7.5C1.05417 7.5 1.15625 7.45625 1.24375 7.36875L4 4.6125L6.75625 7.36875C6.84375 7.45625 6.96042 7.5 7.0625 7.5C7.16458 7.5 7.28125 7.45625 7.36875 7.36875C7.54375 7.19375 7.54375 6.91667 7.36875 6.75625L4.6125 4Z" fill="white" stroke="white"/>
</svg>
