<svg width="50" height="46" viewBox="0 0 50 46" fill="none" xmlns="http://www.w3.org/2000/svg">
<path d="M41.586 1.9541H8.41491C4.94673 1.9541 2.125 4.77527 2.125 8.24401V28.544C2.125 32.0049 4.93445 34.8216 8.39257 34.8339V44.0458L21.6311 34.8339H41.586C45.0541 34.8339 47.8759 32.0122 47.8759 28.544V8.24401C47.8759 4.77527 45.0541 1.9541 41.586 1.9541ZM45.1952 28.544C45.1952 30.5339 43.5761 32.1532 41.586 32.1532H20.79L11.0733 38.9147V32.1532H8.41491C6.42476 32.1532 4.80572 30.5339 4.80572 28.544V8.24401C4.80572 6.25358 6.42476 4.63482 8.41491 4.63482H41.586C43.5761 4.63482 45.1952 6.25358 45.1952 8.24401V28.544Z" fill="#6D6E71"/>
<path d="M14.375 11.4263H35.6359V14.107H14.375V11.4263Z" fill="#6D6E71"/>
<path d="M14.375 17.145H35.6359V19.8257H14.375V17.145Z" fill="#6D6E71"/>
<path d="M14.375 22.864H35.6359V25.5447H14.375V22.864Z" fill="#6D6E71"/>
</svg>
