<svg width="46" height="63" viewBox="0 0 46 63" fill="none" xmlns="http://www.w3.org/2000/svg">
<path d="M43.1142 2.76268H32.6871C32.0487 2.12429 31.1975 1.6987 30.3464 1.6987H25.2392C24.0688 0.42191 22.1536 0.315511 20.8769 1.3795C20.7705 1.4859 20.6641 1.5923 20.5577 1.6987H15.4505C14.5993 1.6987 13.6417 2.12429 13.1097 2.76268H2.68266C1.51228 2.76268 0.554688 3.72027 0.554688 4.89066V60.218C0.554688 61.3884 1.51228 62.346 2.68266 62.346H43.1142C44.2846 62.346 45.2422 61.3884 45.2422 60.218V4.89066C45.2422 3.72027 44.2846 2.76268 43.1142 2.76268ZM21.9408 3.29468C22.1536 2.97548 22.4728 2.76268 22.8984 2.76268C23.324 2.76268 23.6432 2.97548 23.856 3.29468C23.9624 3.50748 23.9624 3.61387 23.9624 3.82667C23.9624 4.46506 23.5368 4.89066 22.8984 4.89066C22.26 4.89066 21.8344 4.46506 21.8344 3.82667C21.8344 3.61387 21.8344 3.50748 21.9408 3.29468ZM22.8984 7.01864C24.7072 7.01864 26.0904 5.63545 26.0904 3.82667H30.3464C30.7719 3.82667 31.0911 4.03947 31.3039 4.35867C31.4103 4.57146 31.4103 4.67786 31.4103 4.89066V7.01864C31.4103 7.65703 30.9847 8.08262 30.3464 8.08262H15.4505C14.8121 8.08262 14.3865 7.65703 14.3865 7.01864V4.89066C14.3865 4.67786 14.3865 4.57146 14.4929 4.35867C14.7057 4.03947 15.0249 3.82667 15.4505 3.82667H19.7065C19.7065 5.63545 21.0897 7.01864 22.8984 7.01864ZM43.1142 60.218H2.68266V4.89066H12.2586V7.01864C12.2586 8.82742 13.6417 10.2106 15.4505 10.2106H30.3464C32.1551 10.2106 33.5383 8.82742 33.5383 7.01864V4.89066H43.1142V60.218Z" fill="#2B68AB" stroke="#2B68AB" stroke-width="0.6"/>
<path d="M5.875 57.0261H39.9226V13.4026H5.875V57.0261ZM8.00298 15.5306H37.7946V54.8981H8.00298V15.5306Z" fill="#2B68AB" stroke="#2B68AB" stroke-width="0.6"/>
<path d="M35.6674 20.8506H16.5156V22.9786H35.6674V20.8506Z" fill="#2B68AB" stroke="#2B68AB" stroke-width="0.6"/>
<path d="M14.3888 20.8506H10.1328V22.9786H14.3888V20.8506Z" fill="#2B68AB" stroke="#2B68AB" stroke-width="0.6"/>
<path d="M35.6674 26.1707H16.5156V28.2986H35.6674V26.1707Z" fill="#2B68AB" stroke="#2B68AB" stroke-width="0.6"/>
<path d="M14.3888 26.1707H10.1328V28.2986H14.3888V26.1707Z" fill="#2B68AB" stroke="#2B68AB" stroke-width="0.6"/>
<path d="M35.6674 31.4905H16.5156V33.6185H35.6674V31.4905Z" fill="#2B68AB" stroke="#2B68AB" stroke-width="0.6"/>
<path d="M14.3888 31.4905H10.1328V33.6185H14.3888V31.4905Z" fill="#2B68AB" stroke="#2B68AB" stroke-width="0.6"/>
<path d="M35.6674 36.8105H16.5156V38.9385H35.6674V36.8105Z" fill="#2B68AB" stroke="#2B68AB" stroke-width="0.6"/>
<path d="M14.3888 36.8105H10.1328V38.9385H14.3888V36.8105Z" fill="#2B68AB" stroke="#2B68AB" stroke-width="0.6"/>
<path d="M35.6674 42.1304H16.5156V44.2583H35.6674V42.1304Z" fill="#2B68AB" stroke="#2B68AB" stroke-width="0.6"/>
<path d="M14.3888 42.1304H10.1328V44.2583H14.3888V42.1304Z" fill="#2B68AB" stroke="#2B68AB" stroke-width="0.6"/>
<path d="M35.6674 47.4502H16.5156V49.5782H35.6674V47.4502Z" fill="#2B68AB" stroke="#2B68AB" stroke-width="0.6"/>
<path d="M14.3888 47.4502H10.1328V49.5782H14.3888V47.4502Z" fill="#2B68AB" stroke="#2B68AB" stroke-width="0.6"/>
</svg>
