<svg width="58" height="61" viewBox="0 0 58 61" fill="none" xmlns="http://www.w3.org/2000/svg">
<path d="M48.8252 30.6764C48.4707 30.3234 47.4073 30.3234 47.0528 30.6764L44.9259 32.7947L42.799 30.6764C42.4445 30.3234 41.3811 30.3234 41.0266 30.6764C40.6721 31.0295 40.6721 32.0886 41.0266 32.4417L42.799 34.207L40.6721 36.3253C40.3176 36.6784 40.3176 37.7375 40.6721 38.0906C41.0266 38.4436 41.3811 38.4436 41.7356 38.4436C42.09 38.4436 42.4445 38.4436 42.799 38.0906L44.9259 35.9722L47.0528 38.0906C47.4073 38.4436 47.7618 38.4436 48.1162 38.4436C48.4707 38.4436 48.8252 38.4436 49.1797 38.0906C49.5342 37.7375 49.5342 36.6784 49.1797 36.3253L47.0528 34.56L49.1797 32.4417C49.5342 31.7356 49.5342 31.0295 48.8252 30.6764Z" fill="#2B68AB" stroke="#2B68AB" stroke-width="0.6"/>
<path d="M28.261 43.0335L22.9437 49.0354L21.1713 47.6232C20.4624 47.2701 19.7534 47.2701 19.3989 47.9763C18.6899 48.3293 18.6899 49.0354 19.3989 49.7415L22.2348 51.8599C22.5893 52.2129 22.5893 52.2129 22.9437 52.2129C23.2982 52.2129 23.6527 52.2129 24.0072 51.8599L30.3879 44.7988C30.7423 44.4457 30.7423 43.3865 30.3879 43.0335C29.6789 42.3274 28.9699 42.3274 28.261 43.0335C28.261 42.6804 28.261 43.0335 28.261 43.0335Z" fill="#2B68AB"/>
<path d="M28.261 43.0335L22.9437 49.0354L21.1713 47.6232C20.4624 47.2701 19.7534 47.2701 19.3989 47.9763C18.6899 48.3293 18.6899 49.0354 19.3989 49.7415L22.2348 51.8599C22.5893 52.2129 22.5893 52.2129 22.9437 52.2129C23.2982 52.2129 23.6527 52.2129 24.0072 51.8599L30.3879 44.7988C30.7424 44.4457 30.7424 43.3865 30.3879 43.0335C29.6789 42.3274 28.9699 42.3274 28.261 43.0335ZM28.261 43.0335C28.261 42.6804 28.261 43.0335 28.261 43.0335Z" stroke="#2B68AB" stroke-width="0.6"/>
<path d="M12.3134 19.3786H34.2913C35.0003 19.3786 35.7093 18.6725 35.7093 17.9664C35.7093 17.2603 35.0003 16.9072 34.2913 16.9072H12.3134C11.6045 16.9072 11.25 17.2603 11.25 17.9664C11.25 18.6725 11.6045 19.0256 12.3134 19.3786Z" fill="#2B68AB" stroke="#2B68AB" stroke-width="0.6"/>
<path d="M12.3134 28.9111H25.4293C26.1383 28.9111 26.8472 28.205 26.8472 27.4989C26.8472 26.7928 26.1383 26.0867 25.4293 26.0867H12.3134C11.6045 26.0867 11.25 26.7928 11.25 27.4989C11.25 28.205 11.6045 28.5581 12.3134 28.9111Z" fill="#2B68AB" stroke="#2B68AB" stroke-width="0.6"/>
<path d="M56.977 34.9132C57.3314 31.7357 55.9135 28.5582 53.7866 26.4398C52.3687 24.6745 50.2418 23.6154 47.7604 22.9093V13.3768C47.7604 9.49316 44.5701 6.66872 41.0253 6.66872H30.0363V5.2565C30.0363 2.43205 27.5549 0.313721 24.7191 0.313721C22.2377 0.313721 19.7563 2.43205 19.7563 5.2565V6.66872H7.70391C4.15909 6.66872 0.96875 9.49316 0.96875 13.3768V53.9782C0.96875 57.8618 4.15909 60.6862 7.70391 60.6862H41.0253C44.9246 60.6862 47.7604 57.5087 47.7604 53.9782V45.8579C53.0777 44.7987 56.6225 40.209 56.977 34.9132ZM22.5922 5.2565C22.5922 3.84428 23.6556 2.78511 25.0736 2.78511C26.4915 2.78511 27.5549 3.84428 27.5549 5.2565V6.66872H22.5922V5.2565ZM7.70391 58.2148C5.22254 58.2148 3.45013 56.4495 3.45013 53.9782V13.3768C3.45013 10.9054 5.22254 9.14011 7.70391 9.14011H28.6184H28.9729H41.0253C43.5066 9.14011 45.279 10.9054 45.279 13.3768V22.5562C44.5701 22.5562 44.2156 22.5562 43.5066 22.5562H43.1521C42.4432 22.5562 41.7342 22.9093 41.3797 22.9093H41.0253C40.3163 23.2623 39.9618 23.2623 39.2528 23.6154L38.8984 23.9684C38.1894 24.3215 37.4804 24.6745 37.1259 25.3807C34.6446 27.499 33.2266 30.3234 32.8722 33.5009C32.8722 34.207 32.8722 34.5601 32.8722 35.2662C32.1632 34.9132 31.4542 34.5601 30.7453 34.207H30.0363L28.6184 33.5009H27.9094C27.2004 33.5009 26.137 33.1479 25.428 33.1479C17.6294 33.1479 11.6032 39.5029 11.6032 46.917C11.6032 47.6232 11.6032 48.6823 11.9577 49.3884V49.7415C12.3122 50.4476 12.3122 51.1537 12.6667 51.8598L13.0212 52.2129C13.3756 52.919 13.7301 53.6251 14.0846 53.9782V54.3312C14.4391 55.0373 15.148 55.3904 15.5025 56.0965L15.857 56.4495C16.2115 56.8026 16.9205 57.5087 17.6294 57.8618L7.70391 58.2148ZM25.0736 58.2148C19.0474 58.2148 14.0846 53.272 14.0846 47.2701C14.0846 41.2682 19.0474 36.3254 25.0736 36.3254C31.0998 36.3254 36.0625 41.2682 36.0625 47.2701C36.0625 53.272 31.4542 57.8618 25.0736 58.2148ZM45.279 46.564V54.3312C45.279 56.8026 43.5066 58.5679 41.0253 58.5679H33.2266C33.9356 58.2148 34.2901 57.8618 34.9991 57.1557L35.3535 56.8026C36.0625 56.0965 36.417 55.7434 36.7715 55.0373V54.6843C37.126 53.9782 37.4804 53.272 37.8349 52.919V52.5659C38.1894 51.8598 38.1894 51.1537 38.5439 50.4476V50.0945C38.8984 48.6823 38.8984 46.917 38.5439 45.5048H38.8984C39.6073 45.8579 39.9618 46.2109 40.6708 46.2109C41.0253 46.2109 41.0253 46.564 41.3797 46.564C42.0887 46.917 43.1521 46.917 44.2156 46.917H44.9246L45.279 46.564ZM46.3425 43.7395C45.6335 43.7395 44.9246 43.7395 44.5701 43.7395C43.8611 43.7395 43.5066 43.7395 42.7977 43.3865H42.4432C38.8984 42.3273 36.417 39.5029 35.708 35.9723C35.708 35.2662 35.708 34.5601 35.708 34.207C35.708 33.5009 35.708 33.1479 36.0625 32.4418V32.0887C36.0625 31.7357 36.417 31.0295 36.417 30.6765L36.7715 30.3234C37.126 29.9704 37.126 29.6173 37.4804 29.2643C37.8349 28.9112 38.1894 28.2051 38.5439 27.852C38.5439 27.499 38.8984 27.499 39.2528 27.1459C39.6073 26.7929 39.6073 26.7929 39.9618 26.4398L40.6708 26.0868C41.0253 26.0868 41.3797 25.7337 41.7342 25.7337C42.0887 25.7337 42.0887 25.7337 42.4432 25.3807C42.7977 25.3807 43.1522 25.0276 43.5066 25.0276C43.8611 25.0276 43.8611 25.0276 44.2156 25.0276C44.5701 25.0276 44.9246 25.0276 45.6335 25.0276H46.3425H46.697C51.3052 25.7337 54.8501 29.9704 54.4956 34.5601C53.7866 39.5029 50.5963 43.0334 46.3425 43.7395Z" fill="#2B68AB" stroke="#2B68AB" stroke-width="0.6"/>
</svg>
