<svg width="65" height="65" viewBox="0 0 65 65" fill="none" xmlns="http://www.w3.org/2000/svg">
<path d="M21.8045 49.471V51.3521H12.7998C11.9467 51.3521 11.258 52.0408 11.258 52.894V61.7958H5.60439C4.75121 61.7958 4.0625 62.4845 4.0625 63.3376C4.0625 64.1908 4.75121 64.8795 5.60439 64.8795H12.7998H52.2927H59.3956C60.2488 64.8795 60.9375 64.1908 60.9375 63.3376C60.9375 62.4845 60.2488 61.7958 59.3956 61.7958H53.8345V52.894C53.8345 52.0408 53.1458 51.3521 52.2927 51.3521H43.1955V49.471C43.1955 45.9143 40.9135 42.8923 37.7475 41.7615V37.5368L41.5097 40.271C42.1265 40.7233 42.846 40.9495 43.5553 40.9495C44.2646 40.9495 44.9738 40.7233 45.6009 40.271C46.8447 39.3665 47.3381 37.8451 46.8652 36.3855L43.432 25.8596L52.3955 19.3528C53.6392 18.4482 54.1326 16.9269 53.6598 15.4673C53.187 14.0076 51.8918 13.0619 50.3499 13.0619H39.2689L35.8459 2.5257C35.373 1.06605 34.0779 0.120361 32.536 0.120361C30.9941 0.120361 29.7092 1.06605 29.2261 2.5257L25.8031 13.0619H14.7426C13.211 13.0619 11.9158 14.0076 11.4327 15.4673C10.9599 16.9269 11.4533 18.4482 12.6971 19.3528L21.6605 25.8596L18.2376 36.3958C17.7647 37.8554 18.2581 39.3768 19.5019 40.2813C20.7457 41.1859 22.3493 41.1859 23.593 40.2813L27.2627 37.6087V41.7615C24.0864 42.8923 21.8045 45.9143 21.8045 49.471ZM50.7508 61.7958H14.3417V54.4358H23.3463H41.6434H50.7405V61.7958H50.7508ZM40.1015 49.471V51.3521H24.8882V49.471C24.8882 46.6545 27.1805 44.3622 29.997 44.3622H34.9927C37.8092 44.3622 40.1015 46.6545 40.1015 49.471ZM21.7736 37.7835C21.6194 37.8965 21.4652 37.8965 21.3111 37.7835C21.1569 37.6704 21.1055 37.5265 21.1671 37.3415L24.9396 25.7362C25.1452 25.0989 24.9191 24.4102 24.3845 24.0093L14.5165 16.8344C14.3623 16.7213 14.3109 16.5774 14.3726 16.3924C14.4342 16.2176 14.5576 16.1251 14.7426 16.1251H26.9441C27.6122 16.1251 28.2084 15.6934 28.414 15.0561L32.1865 3.45083C32.2996 3.09106 32.8135 3.09106 32.9266 3.45083L36.6991 15.0561C36.9046 15.6934 37.5008 16.1251 38.169 16.1251H50.3704C50.5555 16.1251 50.6891 16.2176 50.7405 16.3924C50.8022 16.5671 50.7508 16.7213 50.5966 16.8344L40.7285 24.0093C40.1837 24.3999 39.9576 25.0989 40.1734 25.7362L43.9459 37.3415C44.0076 37.5162 43.9562 37.6704 43.802 37.7835C43.6478 37.8965 43.4936 37.8965 43.3395 37.7835L37.1308 33.2709L33.4714 30.6188C33.0808 30.331 32.5977 30.2694 32.1454 30.3927C31.9706 30.4441 31.8061 30.5161 31.652 30.6188L21.7736 37.7835ZM32.5463 33.7643L34.6638 35.2959V41.2784H30.3465V35.3679L32.5463 33.7643Z" fill="#2B68AB"/>
</svg>
