<svg width="13" height="12" viewBox="0 0 13 12" fill="none" xmlns="http://www.w3.org/2000/svg">
<path d="M7.4625 6L11.7937 1.66875C12.0687 1.39375 12.0687 0.958333 11.7937 0.70625C11.5188 0.43125 11.0833 0.43125 10.8313 0.70625L6.5 5.01458L2.16875 0.70625C1.89375 0.43125 1.45833 0.43125 1.20625 0.70625C0.93125 0.98125 0.93125 1.41667 1.20625 1.66875L5.51458 6L1.20625 10.3083C0.93125 10.5833 0.93125 11.0188 1.20625 11.2708C1.34375 11.4313 1.50417 11.5 1.6875 11.5C1.87083 11.5 2.03125 11.4312 2.16875 11.2937L6.5 6.9625L10.8313 11.2937C10.9688 11.4312 11.1521 11.5 11.3125 11.5C11.4729 11.5 11.6562 11.4312 11.7937 11.2937C12.0687 11.0188 12.0687 10.5833 11.7937 10.3313L7.4625 6Z" fill="#BACAD3" stroke="#BACAD3"/>
</svg>
