<svg width="11" height="11" viewBox="0 0 11 11" fill="none" xmlns="http://www.w3.org/2000/svg">
<path d="M6.2875 5.5L9.83125 1.95625C10.0562 1.73125 10.0562 1.375 9.83125 1.16875C9.60625 0.94375 9.25 0.94375 9.04375 1.16875L5.5 4.69375L1.95625 1.16875C1.73125 0.94375 1.375 0.94375 1.16875 1.16875C0.94375 1.39375 0.94375 1.75 1.16875 1.95625L4.69375 5.5L1.16875 9.025C0.94375 9.25 0.94375 9.60625 1.16875 9.8125C1.28125 9.94375 1.4125 10 1.5625 10C1.7125 10 1.84375 9.94375 1.95625 9.83125L5.5 6.2875L9.04375 9.83125C9.15625 9.94375 9.30625 10 9.4375 10C9.56875 10 9.71875 9.94375 9.83125 9.83125C10.0562 9.60625 10.0562 9.25 9.83125 9.04375L6.2875 5.5Z" fill="#BACAD3" stroke="#BACAD3"/>
</svg>
