<svg width="25" height="24" viewBox="0 0 25 24" fill="none" xmlns="http://www.w3.org/2000/svg">
<g clip-path="url(#clip0_432_27797)">
<path d="M21.7969 5.20644L16.2585 -0.137314C16.1292 -0.262002 15.9538 -0.333252 15.7692 -0.333252H6.07692C4.93231 -0.333252 4 0.566279 4 1.67065V20.4628C4 21.5672 4.93231 22.4667 6.07692 22.4667H19.9231C21.0677 22.4667 22 21.5672 22 20.4628V5.67847C22 5.49589 21.9215 5.32667 21.7969 5.20644ZM16.4615 1.94675L19.6369 5.0105H17.1538C16.7708 5.0105 16.4615 4.71214 16.4615 4.34253V1.94675ZM19.9231 21.1308H6.07692C5.69385 21.1308 5.38462 20.8325 5.38462 20.4628V1.67065C5.38462 1.30104 5.69385 1.00269 6.07692 1.00269H15.0769V4.34253C15.0769 5.4469 16.0092 6.34644 17.1538 6.34644H20.6154V20.4628C20.6154 20.8325 20.3062 21.1308 19.9231 21.1308Z" fill="#2B68AB" stroke="#2B68AB" stroke-width="0.3"/>
<path d="M17.1523 9.10742H8.84465C8.46157 9.10742 8.15234 9.40578 8.15234 9.77539C8.15234 10.145 8.46157 10.4434 8.84465 10.4434H17.1523C17.5354 10.4434 17.8447 10.145 17.8447 9.77539C17.8447 9.40578 17.5354 9.10742 17.1523 9.10742Z" fill="#2B68AB" stroke="#2B68AB" stroke-width="0.3"/>
<path d="M17.1523 11.7793H8.84465C8.46157 11.7793 8.15234 12.0777 8.15234 12.4473C8.15234 12.8169 8.46157 13.1152 8.84465 13.1152H17.1523C17.5354 13.1152 17.8447 12.8169 17.8447 12.4473C17.8447 12.0777 17.5354 11.7793 17.1523 11.7793Z" fill="#2B68AB" stroke="#2B68AB" stroke-width="0.3"/>
<path d="M17.1523 14.4512H8.84465C8.46157 14.4512 8.15234 14.7495 8.15234 15.1191C8.15234 15.4887 8.46157 15.7871 8.84465 15.7871H17.1523C17.5354 15.7871 17.8447 15.4887 17.8447 15.1191C17.8447 14.7495 17.5354 14.4512 17.1523 14.4512Z" fill="#2B68AB" stroke="#2B68AB" stroke-width="0.3"/>
<path d="M14.3831 17.123H8.84465C8.46157 17.123 8.15234 17.4214 8.15234 17.791C8.15234 18.1606 8.46157 18.459 8.84465 18.459H14.3831C14.7662 18.459 15.0754 18.1606 15.0754 17.791C15.0754 17.4214 14.7662 17.123 14.3831 17.123Z" fill="#2B68AB" stroke="#2B68AB" stroke-width="0.3"/>
</g>
<defs>
<clipPath id="clip0_432_27797">
<rect width="24" height="24" fill="white" transform="translate(0.75)"/>
</clipPath>
</defs>
</svg>
