<svg width="12" height="12" viewBox="0 0 12 12" fill="none" xmlns="http://www.w3.org/2000/svg">
<path d="M11.0721 7.86621C10.8415 7.86621 10.6476 8.06038 10.6476 8.30308V10.0074C10.6476 10.2447 10.4589 10.4443 10.2231 10.4443H1.78525C1.55465 10.4443 1.36074 10.2501 1.36074 10.0074V8.30308C1.36074 8.06577 1.17207 7.86621 0.93623 7.86621C0.70039 7.86621 0.511719 8.06038 0.511719 8.30308V10.0074C0.511719 10.7247 1.07773 11.3126 1.78001 11.3126H10.2231C10.9201 11.3126 11.4914 10.7301 11.4914 10.0074V8.30308C11.4966 8.06038 11.3027 7.86621 11.0721 7.86621Z" fill="rgba(43,104,171,1)" stroke="rgba(43,104,171,1)" stroke-width="0.6" stroke-miterlimit="10"/>
<path d="M8.4056 6.65807C8.24314 6.49626 7.98109 6.49626 7.81863 6.65807L6.42979 8.08734V1.12437C6.42979 0.887058 6.24112 0.6875 6.00528 0.6875C5.77469 0.6875 5.58077 0.881665 5.58077 1.12437V8.08734L4.19194 6.65807C4.02423 6.49087 3.75695 6.49626 3.59448 6.66885C3.43726 6.83605 3.43726 7.10572 3.59448 7.27292L5.70655 9.44649C5.86902 9.61369 6.13631 9.61908 6.30401 9.44649L8.41609 7.27292C8.57855 7.10033 8.57331 6.82526 8.4056 6.65807Z" fill="rgba(43,104,171,1)" stroke="rgba(43,104,171,1)" stroke-width="0.6" stroke-miterlimit="10"/>
</svg>
