<svg width="53" height="45" viewBox="0 0 53 45" fill="none" xmlns="http://www.w3.org/2000/svg">
<path d="M50.9002 10.1034L50.9024 10.1042C51.1065 10.176 51.25 10.3763 51.25 10.6007C51.25 10.8392 51.1028 11.0369 50.9024 11.1074L50.8977 11.1091L26.4212 19.8603L26.4131 19.8632L26.405 19.8662C26.3579 19.884 26.305 19.8938 26.25 19.8938C26.195 19.8938 26.1421 19.884 26.095 19.8662L26.0869 19.8632L26.0788 19.8603L1.60809 11.1112C1.39104 11.0295 1.25 10.8212 1.25 10.6007C1.25 10.3763 1.39355 10.176 1.59757 10.1042L1.59985 10.1034L26.0716 1.42541C26.1835 1.38749 26.3165 1.38749 26.4284 1.42541C26.4293 1.42572 26.4302 1.42604 26.4312 1.42636L50.9002 10.1034Z" stroke="#6D6E71" stroke-width="2"/>
<path d="M47.8432 29.6043V30.036L48.2164 30.2528C48.907 30.654 49.3768 31.412 49.3768 32.2797C49.3768 33.1447 48.9095 33.8938 48.2164 34.2964L47.8432 34.5132V34.9449V42.4707C47.8432 42.9079 47.4947 43.2524 47.0697 43.2524C46.6448 43.2524 46.2963 42.9079 46.2963 42.4707V34.9449V34.5132L45.923 34.2964C45.23 33.8938 44.7627 33.1447 44.7627 32.2797C44.7627 31.4147 45.23 30.6657 45.923 30.2631L46.2963 30.0462V29.6145V17.8682L47.8432 17.3135V29.6043Z" stroke="#6D6E71" stroke-width="1.5"/>
<path d="M24.3791 24.6228L24.3791 24.6228L11.9541 20.179V25.4988C11.9541 25.9276 12.1626 26.429 12.8622 26.9999C13.5755 27.5819 14.7159 28.1603 16.3522 28.6938L24.3791 24.6228ZM24.3791 24.6228L24.3865 24.6254C24.984 24.8338 25.6131 24.9467 26.2494 24.9467C26.8857 24.9467 27.5149 24.8338 28.1124 24.6254L28.1124 24.6254L28.1198 24.6228L40.5447 20.179M24.3791 24.6228L40.5447 20.179M40.5447 20.179V25.4988C40.5447 25.9318 40.3346 26.4329 39.6341 27.0027C38.9194 27.584 37.7785 28.1601 36.146 28.694C33.316 29.6162 29.8073 30.1355 26.2494 30.1355C22.6914 30.1355 19.1825 29.6162 16.3524 28.6939L40.5447 20.179Z" stroke="#6D6E71" stroke-width="2"/>
</svg>
