<svg width="33" height="34" viewBox="0 0 33 34" fill="none" xmlns="http://www.w3.org/2000/svg">
<path d="M28.1816 12.4831L28.1826 12.4835C28.279 12.5174 28.3468 12.6121 28.3468 12.7181C28.3468 12.8308 28.2773 12.9242 28.1826 12.9575L28.1804 12.9583L16.6155 17.0931L16.6155 17.0931L16.6079 17.0959C16.5857 17.1043 16.5607 17.109 16.5347 17.109C16.5087 17.109 16.4837 17.1043 16.4614 17.0959L16.4614 17.0959L16.4538 17.0931L4.89167 12.9593C4.78912 12.9207 4.72249 12.8223 4.72249 12.7181C4.72249 12.6121 4.79031 12.5174 4.88671 12.4835L4.88778 12.4831L16.4504 8.38289C16.5032 8.36498 16.5661 8.36498 16.6189 8.38289C16.6194 8.38304 16.6198 8.38319 16.6203 8.38334L28.1816 12.4831Z" stroke="white" stroke-width="0.944974"/>
<path d="M26.7376 21.697V21.901L26.9139 22.0034C27.2402 22.193 27.4622 22.5511 27.4622 22.9611C27.4622 23.3698 27.2414 23.7237 26.9139 23.914L26.7376 24.0164V24.2204V27.7762C26.7376 27.9828 26.5729 28.1456 26.3721 28.1456C26.1714 28.1456 26.0067 27.9828 26.0067 27.7762V24.2204V24.0164L25.8303 23.914C25.5029 23.7237 25.2821 23.3698 25.2821 22.9611C25.2821 22.5524 25.5029 22.1985 25.8303 22.0083L26.0067 21.9058V21.7018V16.1519L26.7376 15.8898V21.697Z" stroke="white" stroke-width="0.708731"/>
<path d="M15.6507 19.3432L15.6507 19.3432L9.7801 17.2435V19.7571C9.7801 19.9597 9.87863 20.1966 10.2092 20.4663C10.5462 20.7414 11.085 21.0146 11.8582 21.2667L15.6507 19.3432ZM15.6507 19.3432L15.6542 19.3444C15.9365 19.4429 16.2338 19.4962 16.5345 19.4962C16.8351 19.4962 17.1324 19.4429 17.4147 19.3444L17.4147 19.3444L17.4182 19.3432L23.2888 17.2435M15.6507 19.3432L23.2888 17.2435M23.2888 17.2435V19.7571C23.2888 19.9617 23.1895 20.1984 22.8585 20.4677C22.5209 20.7423 21.9819 21.0144 21.2107 21.2667L23.2888 17.2435ZM16.5345 21.9479C14.8533 21.9479 13.1954 21.7025 11.8582 21.2667L21.2107 21.2667C19.8735 21.7025 18.2156 21.9479 16.5345 21.9479Z" stroke="white" stroke-width="0.944974"/>
</svg>
