<svg width="3" height="9" viewBox="0 0 3 9" fill="none" xmlns="http://www.w3.org/2000/svg">
<path d="M1.59809 0.971436C1.62792 0.981106 1.65775 0.990777 1.68924 0.998514C2.0621 1.1107 2.31234 1.48979 2.29411 1.93852C2.2792 2.29441 2.24771 2.64836 2.22285 3.00425C2.20131 3.31952 2.17811 3.63673 2.15491 3.952C2.13171 4.28274 2.10685 4.61349 2.08365 4.94423C2.06045 5.26337 2.0389 5.58057 2.0157 5.89971C2.00079 6.11054 1.98753 6.32136 1.96433 6.53025C1.93284 6.78943 1.72569 6.98672 1.497 6.98672C1.26831 6.98672 1.0595 6.7875 1.03133 6.52832C1.00316 6.25947 0.986584 5.99062 0.966698 5.72177C0.94184 5.39683 0.918639 5.06995 0.895438 4.74501C0.872238 4.42394 0.849037 4.10286 0.827493 3.78179C0.799321 3.39689 0.769492 3.01392 0.744634 2.62902C0.726404 2.36404 0.701547 2.09906 0.703204 1.83601C0.708175 1.4279 1.0015 1.05461 1.34785 0.986909C1.36443 0.983041 1.37934 0.977238 1.39591 0.971436C1.46386 0.971436 1.53014 0.971436 1.59809 0.971436Z" fill="white"/>
<path d="M2.02013 7.92303C2.02013 8.25765 1.78812 8.52843 1.50309 8.52843C1.21473 8.52843 0.982727 8.25571 0.984384 7.91723C0.986041 7.58262 1.21805 7.3157 1.50474 7.31764C1.78978 7.31957 2.02013 7.58842 2.02013 7.92303Z" fill="white"/>
</svg>
