<svg width="22" height="23" viewBox="0 0 22 23" fill="none" xmlns="http://www.w3.org/2000/svg">
<path d="M21.3876 2.55566H11.6094V19.6675H21.3876C21.7543 19.6675 21.9987 19.4231 21.9987 19.0564V3.1668C21.9987 2.80012 21.7543 2.55566 21.3876 2.55566Z" fill="#4CAF50"/>
<path d="M15.8873 5.61133H20.1653V7.44474H15.8873V5.61133ZM15.8873 11.7227H20.1653V13.5561H15.8873V11.7227ZM15.8873 14.7784H20.1653V16.6118H15.8873V14.7784ZM15.8873 8.66702H20.1653V10.5004H15.8873V8.66702ZM11.6094 5.61133H14.6651V7.44474H11.6094V5.61133ZM11.6094 11.7227H14.6651V13.5561H11.6094V11.7227ZM11.6094 14.7784H14.6651V16.6118H11.6094V14.7784ZM11.6094 8.66702H14.6651V10.5004H11.6094V8.66702Z" fill="white"/>
<path d="M12.8339 22.112L0 19.6675V2.55563L12.8339 0.111084V22.112Z" fill="#2E7D32"/>
<path d="M8.00137 15.3897L6.53464 12.5784C6.47353 12.4562 6.41241 12.2729 6.3513 12.0284C6.3513 12.1506 6.22907 12.334 6.16796 12.6395L4.70123 15.3897H2.37891L5.12903 11.1117L2.62336 6.83374H4.94568L6.16796 9.40052C6.29019 9.58386 6.3513 9.82831 6.41241 10.1339C6.47353 9.95054 6.53464 9.70609 6.65687 9.40052L8.00137 6.83374H10.1404L7.57358 11.0506L10.2015 15.3897H8.00137Z" fill="white"/>
</svg>
