<svg width="23" height="24" viewBox="0 0 23 24" fill="none" xmlns="http://www.w3.org/2000/svg">
<path d="M19.5 2.11108H4.5C4.10254 2.11226 3.72169 2.27067 3.44064 2.55172C3.15959 2.83277 3.00117 3.21362 3 3.61108V18.6111C3.00117 19.0085 3.15959 19.3894 3.44064 19.6704C3.72169 19.9515 4.10254 20.1099 4.5 20.1111H19.5C19.8975 20.1099 20.2783 19.9515 20.5594 19.6704C20.8404 19.3894 20.9988 19.0085 21 18.6111V3.61108C20.9988 3.21362 20.8404 2.83277 20.5594 2.55172C20.2783 2.27067 19.8975 2.11226 19.5 2.11108ZM7.5 8.11108C7.79667 8.11108 8.08668 8.19906 8.33335 8.36388C8.58003 8.5287 8.77229 8.76297 8.88582 9.03706C8.99935 9.31115 9.02906 9.61275 8.97118 9.90372C8.9133 10.1947 8.77044 10.462 8.56066 10.6717C8.35088 10.8815 8.08361 11.0244 7.79264 11.0823C7.50166 11.1401 7.20006 11.1104 6.92598 10.9969C6.65189 10.8834 6.41762 10.6911 6.2528 10.4444C6.08797 10.1978 6 9.90776 6 9.61108C6 9.21326 6.15804 8.83173 6.43934 8.55042C6.72064 8.26912 7.10218 8.11108 7.5 8.11108ZM4.5 18.6111L9 14.1111L10.5 15.6111L15 9.61108L19.5 18.6111H4.5Z" fill="#B89882"/>
</svg>
