<svg width="68" height="62" viewBox="0 0 68 62" fill="none" xmlns="http://www.w3.org/2000/svg">
<path fill-rule="evenodd" clip-rule="evenodd" d="M67.5 37.5457C67.5 35.8368 66.9111 34.2438 65.9202 32.955C66.3079 32.0571 66.509 31.0724 66.509 30.0586C66.509 26.0182 63.2631 22.7309 59.2848 22.7309H49.6621C49.7626 22.4702 49.8631 22.2096 49.9493 22.0068L50.0929 21.6593C50.5956 20.4283 53.0803 14.0274 53.3101 8.90087C53.4681 5.46871 52.8648 3.15164 51.3999 1.61658C50.4089 0.573897 49.0301 -0.00537109 47.5364 -0.00537109C47.005 -0.00537109 46.4593 0.0670374 45.8991 0.211854C43.1272 0.906976 42.366 3.77435 41.8059 5.8742C41.6048 6.64173 41.2889 7.81475 41.016 8.19127C39.709 10.0739 38.6318 11.6234 37.6983 12.9847C34.754 17.2278 33.1311 19.5594 30.0719 24.237C29.282 25.439 28.1761 26.2499 26.8117 27.1188C26.3665 24.628 24.2121 22.7309 21.6125 22.7309H5.78532C2.86978 22.7454 0.5 25.1349 0.5 28.0602V56.676C0.5 59.6158 2.86978 62.0053 5.78532 62.0053H21.6269C24.1403 62.0053 26.2372 60.2385 26.783 57.8635C28.2192 58.631 29.6554 59.0075 31.0773 59.0075H54.7607C58.8826 59.0075 62.229 55.6478 62.229 51.5205C62.229 51.4047 62.229 51.2888 62.2147 51.1874C64.0387 49.8117 65.1877 47.6249 65.1877 45.2065C65.1877 44.5259 65.1015 43.8452 64.9148 43.208C66.509 41.8323 67.5 39.8048 67.5 37.5457ZM23.6089 56.6905C23.6089 57.7911 22.7184 58.6889 21.6269 58.6889H5.78532C4.69378 58.6889 3.80332 57.7911 3.80332 56.6905V28.0602C3.80332 26.9596 4.69378 26.0617 5.78532 26.0617H21.6269C22.7184 26.0617 23.6089 26.9596 23.6089 28.0602V56.6905ZM60.0316 41.7164H59.9742C61.1232 42.455 61.8844 43.7438 61.8844 45.2065C61.8844 47.2629 60.3907 48.9572 58.4374 49.3048C58.3943 49.3483 58.3656 49.3917 58.3369 49.4207C58.6959 50.0434 58.9114 50.753 58.9114 51.535C58.9114 53.8376 57.0443 55.6912 54.7463 55.6912H31.0773C29.6985 55.6912 28.2623 55.054 26.8835 53.9969V30.9999C29.124 29.6097 31.3214 28.4077 32.8582 26.0762C36.8796 19.9214 38.4451 17.7782 43.7448 10.1029C45.1236 8.11886 45.1523 3.83228 46.7178 3.44127C47.0194 3.36886 47.2923 3.32542 47.5508 3.32542C49.3174 3.32542 50.1791 5.0777 50.0211 8.75606C49.8344 12.9847 47.7662 18.6326 47.0481 20.3993C46.33 22.1806 45.4683 24.1356 46.0571 25.0624C46.4162 25.6272 46.9332 25.8879 47.6944 26.0617H59.2991C61.4678 26.0617 63.22 27.8429 63.22 30.0586C63.22 31.5647 62.4014 32.8681 61.195 33.5487C62.9328 34.0411 64.211 35.6486 64.211 37.5457C64.211 39.8483 62.3439 41.7164 60.0316 41.7164Z" fill="#6D6E71" stroke="white"/>
</svg>
