<svg width="95" height="87" viewBox="0 0 95 87" fill="none" xmlns="http://www.w3.org/2000/svg">
<g clip-path="url(#clip0_757_51690)">
<path fill-rule="evenodd" clip-rule="evenodd" d="M94.75 52.6836C94.75 50.2861 93.9239 48.0511 92.5335 46.2429C93.0775 44.9832 93.3596 43.6016 93.3596 42.1794C93.3596 36.5107 88.8057 31.8986 83.2242 31.8986H69.7236C69.8647 31.5329 70.0057 31.1672 70.1266 30.8828L70.3281 30.3951C71.0334 28.6681 74.5193 19.6878 74.8418 12.4953C75.0634 7.68006 74.2171 4.42924 72.1618 2.27557C70.7714 0.812704 68.837 0 66.7414 0C65.9959 0 65.2302 0.101588 64.4443 0.304764C60.5554 1.28001 59.4874 5.3029 58.7016 8.24895C58.4195 9.32578 57.9762 10.9715 57.5933 11.4998C55.7596 14.1411 54.2484 16.315 52.9386 18.2249C48.8079 24.178 46.5309 27.4491 42.239 34.0117C41.1307 35.698 39.5792 36.8358 37.6649 38.0549C37.0402 34.5603 34.0177 31.8986 30.3706 31.8986H8.16522C4.07476 31.919 0.75 35.2714 0.75 39.3755V79.5231C0.75 83.6476 4.07476 87 8.16522 87H30.3907C33.917 87 36.8589 84.5212 37.6246 81.1892C39.6396 82.266 41.6546 82.7943 43.6495 82.7943H76.8769C82.66 82.7943 87.3549 78.0806 87.3549 72.29C87.3549 72.1275 87.3549 71.965 87.3348 71.8227C89.8938 69.8926 91.5058 66.8246 91.5058 63.4316C91.5058 62.4766 91.3849 61.5217 91.123 60.6277C93.3596 58.6976 94.75 55.8531 94.75 52.6836ZM33.1714 79.5434C33.1714 81.0876 31.9221 82.3473 30.3907 82.3473H8.16522C6.63382 82.3473 5.38451 81.0876 5.38451 79.5434V39.3755C5.38451 37.8314 6.63382 36.5717 8.16522 36.5717H30.3907C31.9221 36.5717 33.1714 37.8314 33.1714 39.3755V79.5434ZM84.272 58.535H84.1914C85.8034 59.5712 86.8713 61.3795 86.8713 63.4316C86.8713 66.3167 84.7757 68.6938 82.0353 69.1815C81.9749 69.2424 81.9346 69.3034 81.8943 69.344C82.398 70.2177 82.7003 71.2132 82.7003 72.3104C82.7003 75.5409 80.0808 78.1415 76.8568 78.1415H43.6495C41.7151 78.1415 39.7001 77.2475 37.7656 75.7644V43.5C40.9091 41.5495 43.992 39.8631 46.1481 36.592C51.7901 27.957 53.9864 24.95 61.4218 14.1817C63.3562 11.3982 63.3965 5.38417 65.5929 4.83559C66.016 4.734 66.3989 4.67305 66.7616 4.67305C69.24 4.67305 70.449 7.13148 70.2274 12.2922C69.9654 18.2249 67.0638 26.1488 66.0563 28.6275C65.0488 31.1266 63.8398 33.8695 64.666 35.1698C65.1697 35.9622 65.8951 36.3279 66.9631 36.5717H83.2443C86.287 36.5717 88.7453 39.0708 88.7453 42.1794C88.7453 44.2924 87.5967 46.121 85.9041 47.0759C88.3423 47.7667 90.1356 50.0219 90.1356 52.6836C90.1356 55.9141 87.5161 58.535 84.272 58.535Z" fill="#2B68AB"/>
<path d="M26.3416 77.9179C28.2001 77.9179 29.7067 76.3988 29.7067 74.5249C29.7067 72.6509 28.2001 71.1318 26.3416 71.1318C24.4831 71.1318 22.9766 72.6509 22.9766 74.5249C22.9766 76.3988 24.4831 77.9179 26.3416 77.9179Z" fill="#2B68AB"/>
</g>
<defs>
<clipPath id="clip0_757_51690">
<rect width="94" height="87" fill="white" transform="translate(0.75)"/>
</clipPath>
</defs>
</svg>
