<svg width="24" height="22" viewBox="0 0 24 22" fill="none" xmlns="http://www.w3.org/2000/svg">
<path d="M7.98679 14.8464C7.82744 14.8246 7.75868 14.734 7.72429 14.6887C7.58676 14.5076 7.63037 14.1889 7.81151 14.0513L16.2349 7.6559C16.416 7.51836 16.655 7.55107 16.8379 7.69783C16.9754 7.87898 16.9318 8.19767 16.7506 8.3352L8.32728 14.7306C8.19142 14.8338 8.06646 14.8573 7.98679 14.8464Z" fill="#6D6E71" stroke="#6D6E71" stroke-width="0.8" stroke-linecap="round" stroke-linejoin="round"/>
<path d="M15.8218 12.469L15.4234 12.4145C15.2297 12.3474 15.0578 12.121 15.0905 11.882C15.1232 11.6429 15.384 11.5163 15.623 11.549C16.5682 11.7595 17.5678 11.5717 18.3377 10.9871L20.7379 9.16479C22.2324 8.03011 22.5159 5.95866 21.3812 4.46419L21.1749 4.19247C20.0293 2.77768 17.9579 2.4942 16.5087 3.59449L14.1085 5.41685C13.3386 6.00138 12.8891 6.91382 12.8379 7.88078C12.8052 8.11979 12.6132 8.337 12.3741 8.30429C12.1351 8.27158 11.9179 8.07953 11.9506 7.84052C12.0345 6.63455 12.5964 5.494 13.5927 4.73755L15.9929 2.91519C17.8044 1.53983 20.4335 1.89962 21.8542 3.67671L22.0605 3.94843C23.4359 5.75991 23.0761 8.38906 21.299 9.80971L18.8535 11.6665C17.9134 12.3088 16.8575 12.6108 15.8218 12.469Z" fill="#6D6E71" stroke="#6D6E71" stroke-width="0.8" stroke-linecap="round" stroke-linejoin="round"/>
<path d="M5.76732 20.1021C4.60664 19.9838 3.59105 19.3985 2.94865 18.4583L2.77673 18.2319C2.12343 17.3714 1.83243 16.2359 1.93978 15.1549C2.1268 14.0848 2.71218 13.0692 3.53825 12.3706L5.93846 10.5483C6.93477 9.79182 8.22964 9.52262 9.44819 9.81112C9.64191 9.87821 9.77945 10.0594 9.74674 10.2984C9.71403 10.5374 9.45321 10.664 9.2142 10.6313C8.26905 10.4208 7.2241 10.643 6.45422 11.2276L4.05401 13.0499C3.37471 13.5657 2.90171 14.3532 2.78178 15.2296C2.62746 16.0607 2.82622 16.9806 3.42165 17.6709L3.62795 17.9426C4.72825 19.3918 6.79969 19.6752 8.29416 18.5406L10.6944 16.7182C11.4642 16.1337 11.9138 15.2212 11.9649 14.2543C11.918 14.0044 12.11 13.7871 12.3599 13.7402C12.6098 13.6932 12.8271 13.8853 12.874 14.1352C12.8631 14.2149 12.8975 14.2601 12.8866 14.3398C12.8371 15.5911 12.2752 16.7316 11.2789 17.4881L8.87869 19.3104C7.93857 19.9528 6.80304 20.2438 5.76732 20.1021Z" fill="#6D6E71" stroke="#6D6E71" stroke-width="0.8" stroke-linecap="round" stroke-linejoin="round"/>
</svg>
