<svg width="41" height="35" viewBox="0 0 41 35" fill="none" xmlns="http://www.w3.org/2000/svg">
<path d="M27.5324 4.74434H29.8411C30.3864 4.74434 30.8828 4.96988 31.2409 5.33295C31.599 5.69602 31.8215 6.19936 31.8215 6.75221V32.6868C31.8215 33.2396 31.599 33.743 31.2409 34.106C30.8828 34.4691 30.3864 34.6946 29.8411 34.6946H11.1628C10.6175 34.6946 10.1211 34.4691 9.76296 34.106C9.40214 33.743 9.17969 33.2424 9.17969 32.6868V6.75496C9.17969 6.20211 9.40214 5.69877 9.76025 5.3357C10.1183 4.97263 10.6148 4.74709 11.1601 4.74709H13.4688V3.83392C13.4688 3.55062 13.5827 3.29207 13.7672 3.10779C13.9517 2.92075 14.204 2.80523 14.4834 2.80523H16.6184C16.7921 2.80523 16.9494 2.76122 17.0769 2.68146C17.2071 2.60169 17.3156 2.48067 17.397 2.32664C17.6927 1.75179 18.1404 1.2677 18.6884 0.932135C19.2201 0.602074 19.8413 0.415039 20.5006 0.415039C21.1598 0.415039 21.7811 0.602074 22.3101 0.929384C22.8581 1.2677 23.3057 1.74904 23.6014 2.32389C23.6801 2.47792 23.7913 2.59894 23.9215 2.67871C24.0518 2.75847 24.2091 2.80248 24.38 2.80248H26.5151C26.7945 2.80248 27.0495 2.918 27.2313 3.10504C27.4157 3.29207 27.5297 3.54787 27.5297 3.83117V4.74434H27.5324ZM13.4715 5.69327H11.1628C10.8752 5.69327 10.6148 5.81154 10.4249 6.00407C10.235 6.19661 10.1183 6.46066 10.1183 6.75221V32.6868C10.1183 32.9783 10.235 33.2424 10.4249 33.4349C10.6148 33.6274 10.8752 33.7457 11.1628 33.7457H29.8411C30.1286 33.7457 30.3891 33.6274 30.579 33.4349C30.7689 33.2424 30.8855 32.9783 30.8855 32.6868V6.75496C30.8855 6.46341 30.7689 6.19936 30.579 6.00682C30.3891 5.81429 30.1286 5.69602 29.8411 5.69602H27.5324V6.7137C27.5324 6.99701 27.4185 7.25555 27.234 7.43984C27.0495 7.62687 26.7972 7.74239 26.5178 7.74239H14.4861C14.2067 7.74239 13.9517 7.62687 13.7699 7.43984C13.5854 7.2528 13.4715 6.99701 13.4715 6.7137V5.69327ZM21.8299 1.73803C21.4447 1.50149 20.9916 1.36396 20.5006 1.36396C20.0123 1.36396 19.5565 1.50149 19.1713 1.73803C18.7725 1.98283 18.4442 2.33764 18.2272 2.76397C18.0698 3.07203 17.8392 3.31958 17.5598 3.49011C17.2804 3.66064 16.9603 3.75416 16.6184 3.75416H14.4834C14.4617 3.75416 14.4427 3.76241 14.4291 3.77891C14.4156 3.79266 14.4047 3.81467 14.4047 3.83667V6.71645C14.4047 6.73846 14.4129 6.75771 14.4291 6.77147C14.4427 6.78522 14.4644 6.79622 14.4834 6.79622H26.5151C26.5368 6.79622 26.5558 6.78797 26.572 6.77147C26.5856 6.75771 26.5964 6.73571 26.5964 6.71645V3.83117C26.5964 3.80917 26.5883 3.78991 26.572 3.77341C26.5585 3.75966 26.5368 3.74866 26.5151 3.74866H24.38C24.0382 3.74866 23.7181 3.65514 23.4386 3.48461C23.1592 3.31408 22.9313 3.06653 22.7713 2.75847C22.557 2.33764 22.2287 1.98283 21.8299 1.73803Z" fill="#6D6E71" stroke="#6D6E71" stroke-width="0.4"/>
<path d="M12.8746 11.4556C12.6928 11.2714 12.6928 10.9716 12.8746 10.7845C13.0564 10.6002 13.3521 10.6002 13.5365 10.7845L14.3775 11.6372L15.9863 9.65131C16.1491 9.45053 16.4421 9.42027 16.6428 9.5853C16.8409 9.75033 16.8707 10.0474 16.7079 10.2509L14.7953 12.6109C14.7791 12.6356 14.7601 12.6576 14.7411 12.6769C14.5593 12.8612 14.2636 12.8612 14.0791 12.6769L12.8746 11.4556Z" fill="#6D6E71" stroke="#6D6E71" stroke-width="0.4"/>
<path d="M19.1307 11.7911C18.873 11.7911 18.6641 11.5794 18.6641 11.3181C18.6641 11.0568 18.873 10.845 19.1307 10.845H27.7984C28.0561 10.845 28.265 11.0568 28.265 11.3181C28.265 11.5794 28.0561 11.7911 27.7984 11.7911H19.1307Z" fill="#6D6E71" stroke="#6D6E71" stroke-width="0.4"/>
<path d="M12.8746 17.1712C12.6928 16.987 12.6928 16.6871 12.8746 16.5001C13.0564 16.3158 13.3521 16.3158 13.5365 16.5001L14.3775 17.3528L15.9863 15.3669C16.1491 15.1661 16.4421 15.1358 16.6428 15.3009C16.8409 15.4659 16.8707 15.763 16.7079 15.9665L14.7953 18.3265C14.7791 18.3512 14.7601 18.3732 14.7411 18.3925C14.5593 18.5768 14.2636 18.5768 14.0791 18.3925L12.8746 17.1712Z" fill="#6D6E71" stroke="#6D6E71" stroke-width="0.4"/>
<path d="M12.8746 22.8868C12.6928 22.7025 12.6928 22.4027 12.8746 22.2157C13.0564 22.0314 13.3521 22.0314 13.5365 22.2157L14.3775 23.0683L15.9863 21.0825C16.1491 20.8817 16.4421 20.8514 16.6428 21.0165C16.8409 21.1815 16.8707 21.4785 16.7079 21.6821L14.7953 24.042C14.7791 24.0668 14.7601 24.0888 14.7411 24.108C14.5593 24.2923 14.2636 24.2923 14.0791 24.108L12.8746 22.8868Z" fill="#6D6E71" stroke="#6D6E71" stroke-width="0.4"/>
<path d="M12.8746 28.6021C12.6928 28.4178 12.6928 28.118 12.8746 27.931C13.0564 27.7467 13.3521 27.7467 13.5365 27.931L14.3775 28.7837L15.9863 26.7978C16.1491 26.597 16.4421 26.5668 16.6428 26.7318C16.8409 26.8968 16.8707 27.1939 16.7079 27.3974L14.7953 29.7546C14.7791 29.7793 14.7601 29.8013 14.7411 29.8206C14.5593 30.0049 14.2636 30.0049 14.0791 29.8206L12.8746 28.6021Z" fill="#6D6E71" stroke="#6D6E71" stroke-width="0.4"/>
<path d="M19.1307 17.5067C18.873 17.5067 18.6641 17.2949 18.6641 17.0336C18.6641 16.7723 18.873 16.5605 19.1307 16.5605H27.7984C28.0561 16.5605 28.265 16.7723 28.265 17.0336C28.265 17.2949 28.0561 17.5067 27.7984 17.5067H19.1307Z" fill="#6D6E71" stroke="#6D6E71" stroke-width="0.4"/>
<path d="M19.1307 23.2252C18.873 23.2252 18.6641 23.0134 18.6641 22.7521C18.6641 22.4908 18.873 22.2791 19.1307 22.2791H27.7984C28.0561 22.2791 28.265 22.4908 28.265 22.7521C28.265 23.0134 28.0561 23.2252 27.7984 23.2252H19.1307Z" fill="#6D6E71" stroke="#6D6E71" stroke-width="0.4"/>
<path d="M19.1307 28.9406C18.873 28.9406 18.6641 28.7288 18.6641 28.4675C18.6641 28.2062 18.873 27.9944 19.1307 27.9944H27.7984C28.0561 27.9944 28.265 28.2062 28.265 28.4675C28.265 28.7288 28.0561 28.9406 27.7984 28.9406H19.1307Z" fill="#6D6E71" stroke="#6D6E71" stroke-width="0.4"/>
<path fill-rule="evenodd" clip-rule="evenodd" d="M20.5011 3.27808C20.8728 3.27808 21.174 3.58344 21.174 3.96034C21.174 4.33723 20.8728 4.6426 20.5011 4.6426C20.1293 4.6426 19.8281 4.33723 19.8281 3.96034C19.8281 3.58344 20.1293 3.27808 20.5011 3.27808Z" fill="#6D6E71" stroke="#6D6E71" stroke-width="0.4"/>
</svg>
