<svg width="13" height="19" viewBox="0 0 13 19" fill="none" xmlns="http://www.w3.org/2000/svg">
<path d="M6.50001 0.5C3.19167 0.5 0.5 3.19167 0.5 6.50001C0.5 7.49318 0.748308 8.4779 1.22035 9.35132L6.1719 18.3066C6.23782 18.426 6.36343 18.5 6.50001 18.5C6.63659 18.5 6.76221 18.426 6.82812 18.3066L11.7815 9.34837C12.2517 8.4779 12.5 7.49314 12.5 6.49998C12.5 3.19167 9.80835 0.5 6.50001 0.5ZM6.50001 9.5C4.84584 9.5 3.50002 8.15418 3.50002 6.50001C3.50002 4.84584 4.84584 3.50002 6.50001 3.50002C8.15418 3.50002 9.5 4.84584 9.5 6.50001C9.5 8.15418 8.15418 9.5 6.50001 9.5Z" fill="#231F20"/>
</svg>
