<svg width="24" height="24" viewBox="0 0 24 24" fill="none" xmlns="http://www.w3.org/2000/svg">
<path d="M20.075 7.11909C19.2958 4.55805 17.2417 2.45942 14.6917 1.67688C12 0.823202 9.20208 1.28561 6.97083 2.92183C5.90833 3.70437 5.02292 4.7359 4.42083 5.90971C3.81875 7.08352 3.5 8.47075 3.5 9.82241C3.5 11.672 4.10208 13.4505 5.2 14.9445L12 23.6591L18.8 14.9445C20.4646 12.7036 20.925 9.85798 20.075 7.11909ZM17.7729 14.1619L12 21.5249L6.22708 14.1619C5.30625 12.917 4.81042 11.4231 4.81042 9.82241C4.81042 7.51036 5.90833 5.34059 7.75 3.95336C9.62708 2.56613 12 2.17486 14.3021 2.88626C16.4271 3.56209 18.1625 5.30502 18.8354 7.47479C19.5438 9.85798 19.1542 12.2767 17.7729 14.1619Z" fill="#6D6E71"/>
<path d="M11.9984 5.23389C9.48385 5.23389 7.42969 7.29695 7.42969 9.82241C7.42969 12.3479 9.48385 14.4109 11.9984 14.4109C14.513 14.4109 16.5672 12.3479 16.5672 9.82241C16.5672 7.29695 14.513 5.23389 11.9984 5.23389ZM11.9984 13.0949C10.1922 13.0949 8.7401 11.6365 8.7401 9.82241C8.7401 8.00835 10.1922 6.54998 11.9984 6.54998C13.8047 6.54998 15.2568 8.00835 15.2568 9.82241C15.2568 11.6365 13.8047 13.0949 11.9984 13.0949Z" fill="#6D6E71"/>
</svg>
