<svg width="37" height="32" viewBox="0 0 37 32" fill="none" xmlns="http://www.w3.org/2000/svg">
<g clip-path="url(#clip0_432_29230)">
<path d="M29.1421 12.9129H27.2012V8.32069C27.2012 3.73537 23.4505 0.00488281 18.8359 0.00488281C14.2213 0.00488281 10.4706 3.73781 10.4706 8.32612V12.9129H8.55129C7.88624 12.9129 7.33594 13.4376 7.33594 14.0982V27.973C7.33594 29.6219 8.69757 30.962 10.3575 30.962H27.3359C28.9958 30.962 30.3359 29.6219 30.3359 27.973V14.0982C30.3359 13.4376 29.8071 12.9129 29.1421 12.9129ZM12.8763 8.32612C12.8763 5.05686 15.5493 2.39711 18.8359 2.39711C22.1226 2.39711 24.7955 5.0544 24.7955 8.32069V12.9129H12.8763V8.32612ZM27.9302 27.973C27.9302 28.3028 27.6679 28.5724 27.3359 28.5724H10.3575C10.0255 28.5724 9.74164 28.3028 9.74164 27.973V15.3026H27.9302V27.973Z" fill="#6D6E71"/>
<path d="M18.8357 25.5212C19.5007 25.5212 20.0385 24.9857 20.0385 24.3251V20.0191C20.0385 19.3585 19.5007 18.823 18.8357 18.823C18.1706 18.823 17.6328 19.3585 17.6328 20.0191V24.3251C17.6328 24.9857 18.1706 25.5212 18.8357 25.5212Z" fill="#6D6E71"/>
</g>
<defs>
<clipPath id="clip0_432_29230">
<rect width="36" height="31" fill="white" transform="translate(0.335938 0.285645)"/>
</clipPath>
</defs>
</svg>
