<svg width="31" height="25" viewBox="0 0 31 25" fill="none" xmlns="http://www.w3.org/2000/svg">
<g clip-path="url(#clip0_432_29313)">
<path d="M26.0161 0.0214844H5.62449C3.49245 0.0214844 1.75781 1.75578 1.75781 3.88815V16.3674C1.75781 18.495 3.4849 20.2265 5.61075 20.2341V25.897L13.749 20.2341H26.0161C28.1482 20.2341 29.8828 18.4994 29.8828 16.3674V3.88815C29.8828 1.75578 28.1482 0.0214844 26.0161 0.0214844ZM28.2349 16.3674C28.2349 17.5907 27.2396 18.5861 26.0161 18.5861H13.232L7.2587 22.7427V18.5861H5.62449C4.40105 18.5861 3.40576 17.5907 3.40576 16.3674V3.88815C3.40576 2.66455 4.40105 1.66943 5.62449 1.66943H26.0161C27.2396 1.66943 28.2349 2.66455 28.2349 3.88815V16.3674Z" fill="#2B68AB"/>
<path d="M9.28516 5.84448H22.3551V7.49243H9.28516V5.84448Z" fill="#2B68AB"/>
<path d="M9.28516 9.36011H22.3551V11.0081H9.28516V9.36011Z" fill="#2B68AB"/>
<path d="M9.28516 12.8757H22.3551V14.5237H9.28516V12.8757Z" fill="#2B68AB"/>
</g>
<defs>
<clipPath id="clip0_432_29313">
<rect width="30" height="25" fill="white" transform="translate(0.835938)"/>
</clipPath>
</defs>
</svg>
