<svg width="31" height="25" viewBox="0 0 31 25" fill="none" xmlns="http://www.w3.org/2000/svg">
<g clip-path="url(#clip0_432_29322)">
<path d="M20.8872 24.1803C20.5727 24.1803 20.2097 24.1173 19.7903 23.9438C19.7257 23.9202 19.6693 23.8808 19.6128 23.8414L10.8129 17.2441L7.71562 15.778L2.33568 14.0045C2.32761 14.0045 2.32761 14.0045 2.31955 13.9966C2.18243 13.9493 0.988674 13.5079 0.851554 12.3966C0.730566 11.4428 1.56942 10.8044 2.33568 10.5443L23.8958 2.29171C24.2507 2.14195 25.3719 1.73997 26.1784 2.2523C26.4285 2.40994 26.8398 2.78829 26.8398 3.55285C26.8398 3.60802 26.8318 3.6632 26.8237 3.71049L22.9763 22.6512C22.9682 22.6985 22.9521 22.7536 22.9279 22.8009C22.8876 22.8876 22.5488 23.6759 21.6938 24.0227C21.4922 24.1094 21.2179 24.1803 20.8872 24.1803ZM20.5565 22.462C20.7662 22.5408 20.9275 22.5487 21.0566 22.5014C21.2018 22.4462 21.2986 22.3044 21.3389 22.2334L25.1057 3.6632C24.9363 3.68684 24.7105 3.7499 24.5572 3.81296C24.5491 3.82084 24.533 3.82084 24.5249 3.82872L2.93255 12.1049C2.92449 12.1128 2.90836 12.1128 2.90029 12.1207C2.79543 12.1522 2.67444 12.2232 2.59379 12.2783C2.66638 12.3414 2.78737 12.4123 2.88416 12.4517L8.30443 14.2331C8.3367 14.241 8.36896 14.2567 8.40123 14.2725L11.6276 15.7938C11.676 15.8174 11.7324 15.8489 11.7728 15.8805L20.5565 22.462Z" fill="#2B68AB"/>
<path d="M14.6575 19.0805L11.1488 22.2097C11.1488 22.3122 10.5762 22.3122 10.5762 22.2097L11.2456 16.4794L11.286 16.377C11.286 16.377 21.1263 7.73029 21.5296 7.36771C21.9329 6.99725 21.7958 6.91843 21.7958 6.91843C21.82 6.46915 21.0699 6.91843 21.0699 6.91843L8.02734 15.0134C8.02734 15.0134 9.66472 20.2707 9.98735 21.2639C10.31 22.2649 10.5036 22.2412 10.5681 22.2412" fill="white"/>
<path d="M10.8595 23.1162C10.7063 23.1162 10.5691 23.1004 10.4481 23.0689C9.72222 22.9901 9.41571 22.2334 9.1818 21.5161C8.85917 20.523 7.28632 15.4705 7.21372 15.2577C7.1008 14.903 7.24599 14.5168 7.56862 14.3197L20.6192 6.21694C20.6273 6.21694 20.6273 6.20906 20.6354 6.20906C21.0548 5.96471 21.6517 5.72825 22.1679 6.03565C22.4179 6.18541 22.5873 6.42976 22.6357 6.7214C22.6518 6.76869 22.6599 6.82386 22.668 6.87116C22.7164 7.35196 22.4018 7.70666 22.1114 7.96677C21.7323 8.31358 13.5374 15.5178 12.0694 16.8026L11.6177 20.6806L14.102 18.4657C14.4488 18.1583 14.9812 18.182 15.2957 18.5209C15.6103 18.8598 15.5861 19.3801 15.2393 19.6875L11.8032 22.7536C11.6258 22.9585 11.3354 23.1162 10.8595 23.1162ZM9.02855 15.3759C9.27859 16.172 9.72222 17.6066 10.1174 18.852L10.4078 16.3849C10.4159 16.3218 10.432 16.2587 10.4481 16.2036L10.4885 16.1011C10.5369 15.975 10.6175 15.8568 10.7224 15.7622C12.2388 14.4301 14.3682 12.562 16.2878 10.8674L9.02855 15.3759Z" fill="#2B68AB"/>
<path d="M14.6614 19.9086C14.4759 19.9086 14.2985 19.8534 14.1371 19.7352L10.7253 17.1341C10.3542 16.8503 10.2897 16.3301 10.5801 15.9754C10.8705 15.6128 11.4028 15.5498 11.7658 15.8335L15.1776 18.4425C15.5487 18.7263 15.6132 19.2465 15.3228 19.6012C15.1615 19.8061 14.9115 19.9086 14.6614 19.9086Z" fill="#2B68AB"/>
</g>
<defs>
<clipPath id="clip0_432_29322">
<rect width="30" height="25" fill="white" transform="translate(0.835938)"/>
</clipPath>
</defs>
</svg>
