<svg width="31" height="25" viewBox="0 0 31 25" fill="none" xmlns="http://www.w3.org/2000/svg">
<g clip-path="url(#clip0_432_29305)">
<path d="M28.1992 1.57422H3.47266C2.02059 1.57422 0.835938 2.75758 0.835938 4.21094V21.7891C0.835938 23.2375 2.01531 24.4258 3.47266 24.4258H28.1992C29.6477 24.4258 30.8359 23.2464 30.8359 21.7891V4.21094C30.8359 2.7625 29.6566 1.57422 28.1992 1.57422ZM27.8351 3.33203L15.8918 15.2754L3.84525 3.33203H27.8351ZM2.59375 21.4251V4.56654L11.0593 12.9595L2.59375 21.4251ZM3.8367 22.668L12.3076 14.1971L15.2758 17.1398C15.6194 17.4804 16.1738 17.4793 16.516 17.1371L19.4102 14.243L27.8352 22.668H3.8367ZM29.0781 21.425L20.6531 13L29.0781 4.57492V21.425Z" fill="#2B68AB"/>
</g>
<defs>
<clipPath id="clip0_432_29305">
<rect width="30" height="25" fill="white" transform="translate(0.835938)"/>
</clipPath>
</defs>
</svg>
