<svg width="20" height="23" viewBox="0 0 20 23" fill="none" xmlns="http://www.w3.org/2000/svg">
<path d="M1 20.5132C1 14.5921 1 8.67105 1 2.63158C1 2.51316 1 2.51316 1 2.39474C1.23684 1.44737 1.94737 0.736842 3.01316 0.5C3.13158 0.5 3.13158 0.5 3.25 0.5C6.68421 0.5 10.1184 0.5 13.6711 0.5C13.7895 0.5 13.7895 0.5 13.9079 0.5C14.3816 0.618421 14.8553 0.736842 15.2105 1.21053C16.2763 2.27632 17.3421 3.34211 18.4079 4.40789C18.5263 4.52632 18.5263 4.52632 18.6447 4.64474C18.7632 4.88158 19 5.23684 19 5.59211C19 5.71053 19 5.82895 19 5.94737C19 10.6842 19 15.4211 19 20.2763C19 20.3947 19 20.5132 19 20.75C18.8816 21.6974 18.0526 22.4079 17.1053 22.6447C16.9868 22.6447 16.9868 22.6447 16.8684 22.6447C12.25 22.6447 7.63158 22.6447 3.01316 22.6447C2.89474 22.6447 2.89474 22.6447 2.77632 22.6447C1.82895 22.4079 1.11842 21.5789 1 20.6316V20.5132ZM1.71053 11.6316C1.71053 14.4737 1.71053 17.4342 1.71053 20.2763C1.71053 20.3947 1.71053 20.3947 1.71053 20.5132C1.82895 21.1053 2.18421 21.5789 2.77632 21.8158C3.01316 21.9342 3.25 21.9342 3.36842 21.9342C7.75 21.9342 12.25 21.9342 16.6316 21.9342C16.75 21.9342 16.75 21.9342 16.8684 21.9342C17.4605 21.8158 17.9342 21.4605 18.1711 20.8684C18.2895 20.6316 18.2895 20.5132 18.2895 20.2763C18.2895 15.5395 18.2895 10.6842 18.2895 5.94737C18.2895 5.82895 18.2895 5.82895 18.2895 5.71053C18.2895 5.59211 18.2895 5.47368 18.1711 5.35526C18.0526 5.23684 18.0526 5.11842 17.9342 5C16.8684 3.93421 15.8026 2.86842 14.6184 1.80263C14.3816 1.56579 14.1447 1.44737 13.9079 1.44737C13.6711 1.44737 13.5526 1.32895 13.3158 1.32895C10 1.32895 6.68421 1.32895 3.36842 1.32895H3.25C2.65789 1.32895 2.18421 1.56579 1.94737 2.03947C1.82895 2.27632 1.71053 2.63158 1.71053 2.86842C1.71053 5.71053 1.71053 8.67105 1.71053 11.6316Z" fill="white" stroke="white" stroke-width="0.4"/>
<path d="M10.3558 6.06576C10.3558 6.53945 10.2374 7.01313 10.1189 7.36839C10.1189 7.72366 10.0005 7.9605 10.0005 8.31576V8.43418C10.2374 8.90787 10.5926 9.26313 10.8295 9.61839C10.9479 9.85524 11.1847 9.97366 11.3031 10.2105L11.4216 10.3289C11.7768 10.3289 12.1321 10.2105 12.6058 10.2105C13.0795 10.2105 13.4347 10.2105 13.9084 10.3289C14.0268 10.3289 14.2637 10.4473 14.3821 10.5658C14.6189 10.6842 14.7374 10.921 14.7374 11.1579C14.7374 11.3947 14.6189 11.5131 14.5005 11.6316C14.3821 11.75 14.2637 11.75 14.1453 11.75C13.79 11.75 13.5531 11.75 13.1979 11.75C12.4874 11.3947 11.8953 11.1579 11.3031 10.6842C11.3031 10.6842 11.1847 10.5658 11.1847 10.6842C10.3558 10.8026 9.64525 11.0394 8.8163 11.2763C8.8163 11.2763 8.69788 11.2763 8.69788 11.3947C8.46104 11.6316 8.34262 11.9868 8.10578 12.2237C7.86894 12.5789 7.51367 13.0526 7.15841 13.2894C6.92157 13.5263 6.80315 13.6447 6.44788 13.7631C6.21104 13.8816 5.9742 13.8816 5.73736 13.8816C5.50051 13.8816 5.26367 13.6447 5.26367 13.4079C5.26367 13.2894 5.26367 13.171 5.26367 13.0526C5.26367 12.9342 5.38209 12.8158 5.50051 12.6973C5.73736 12.5789 5.85578 12.4605 6.09262 12.3421C6.44788 12.1052 6.80315 11.8684 7.15841 11.75C7.39525 11.6316 7.75051 11.5131 7.98736 11.2763C7.98736 11.2763 8.10578 11.2763 8.10578 11.1579C8.57946 10.0921 9.05315 9.14471 9.40841 8.07892V7.9605C9.28999 7.60524 9.17157 7.36839 9.05315 7.13155C8.93472 6.53945 8.93472 6.06576 8.93472 5.59208C8.93472 5.47366 8.93472 5.35524 8.93472 5.23681C9.05315 4.88155 9.28999 4.76313 9.64525 4.88155C9.88209 4.88155 10.1189 4.99997 10.2374 5.23681C10.3558 5.35524 10.3558 5.59208 10.3558 5.82892C10.3558 5.82892 10.3558 5.94734 10.3558 6.06576ZM11.0663 10.3289C10.8295 10.0921 10.5926 9.85524 10.4742 9.49997C10.2374 9.26313 10.0005 8.90787 9.76367 8.67102C9.52683 9.38155 9.17157 10.2105 8.93472 10.921C9.28999 10.8026 9.64525 10.6842 10.0005 10.5658C10.3558 10.5658 10.711 10.4473 11.0663 10.3289ZM11.54 10.4473C11.54 10.5658 11.54 10.5658 11.54 10.4473C11.54 10.5658 11.54 10.5658 11.54 10.4473C11.6584 10.6842 11.7768 10.6842 11.8953 10.8026C12.3689 11.0394 12.8426 11.1579 13.3163 11.3947C13.4347 11.3947 13.5531 11.3947 13.5531 11.3947C13.6716 11.3947 13.9084 11.2763 13.9084 11.1579C14.0268 10.921 14.0268 10.6842 13.79 10.5658C13.6716 10.4473 13.5531 10.4473 13.4347 10.4473C13.1979 10.3289 12.8426 10.3289 12.4874 10.4473C12.3689 10.4473 12.0137 10.4473 11.6584 10.4473H11.54ZM7.75051 11.6316C7.39525 11.75 7.15841 11.8684 6.92157 12.1052C6.5663 12.2237 6.32946 12.4605 5.9742 12.6973C5.85578 12.8158 5.73736 12.9342 5.73736 12.9342C5.61894 13.0526 5.61894 13.0526 5.61894 13.171C5.50051 13.4079 5.73736 13.6447 5.85578 13.5263C5.9742 13.5263 5.9742 13.5263 6.09262 13.4079C6.32946 13.2894 6.44788 13.171 6.5663 13.0526C7.03999 12.6973 7.39525 12.2237 7.75051 11.6316ZM9.52683 7.60524C9.76367 7.01313 9.88209 6.42102 9.88209 5.82892C9.88209 5.59208 9.88209 5.47366 9.88209 5.23681C9.88209 5.11839 9.76367 4.99997 9.64525 4.99997C9.52683 4.99997 9.40841 4.99997 9.28999 4.99997C9.28999 5.23681 9.17157 5.23681 9.17157 5.35523C9.17157 5.47366 9.05315 5.59208 9.05315 5.82892C9.05315 6.06576 9.05315 6.42102 9.17157 6.65787C9.28999 6.89471 9.40841 7.24997 9.52683 7.60524Z" fill="white"/>
<path d="M11.54 10.4473C11.54 10.5658 11.54 10.5658 11.54 10.4473C11.54 10.5658 11.54 10.5658 11.54 10.4473ZM11.54 10.4473C11.6584 10.6842 11.7768 10.6842 11.8953 10.8026C12.3689 11.0394 12.8426 11.1579 13.3163 11.3947C13.4347 11.3947 13.5531 11.3947 13.5531 11.3947C13.6716 11.3947 13.9084 11.2763 13.9084 11.1579C14.0268 10.921 14.0268 10.6842 13.79 10.5658C13.6716 10.4473 13.5531 10.4473 13.4347 10.4473C13.1979 10.3289 12.8426 10.3289 12.4874 10.4473C12.3689 10.4473 12.0137 10.4473 11.6584 10.4473H11.54ZM10.3558 6.06576C10.3558 6.53945 10.2374 7.01313 10.1189 7.36839C10.1189 7.72366 10.0005 7.9605 10.0005 8.31576V8.43418C10.2374 8.90787 10.5926 9.26313 10.8295 9.61839C10.9479 9.85524 11.1847 9.97366 11.3031 10.2105L11.4216 10.3289C11.7768 10.3289 12.1321 10.2105 12.6058 10.2105C13.0795 10.2105 13.4347 10.2105 13.9084 10.3289C14.0268 10.3289 14.2637 10.4473 14.3821 10.5658C14.6189 10.6842 14.7374 10.921 14.7374 11.1579C14.7374 11.3947 14.6189 11.5131 14.5005 11.6316C14.3821 11.75 14.2637 11.75 14.1453 11.75C13.79 11.75 13.5531 11.75 13.1979 11.75C12.4874 11.3947 11.8953 11.1579 11.3031 10.6842C11.3031 10.6842 11.1847 10.5658 11.1847 10.6842C10.3558 10.8026 9.64525 11.0394 8.8163 11.2763C8.8163 11.2763 8.69788 11.2763 8.69788 11.3947C8.46104 11.6316 8.34262 11.9868 8.10578 12.2237C7.86894 12.5789 7.51367 13.0526 7.15841 13.2894C6.92157 13.5263 6.80315 13.6447 6.44788 13.7631C6.21104 13.8816 5.9742 13.8816 5.73736 13.8816C5.50051 13.8816 5.26367 13.6447 5.26367 13.4079C5.26367 13.2894 5.26367 13.171 5.26367 13.0526C5.26367 12.9342 5.38209 12.8158 5.50051 12.6973C5.73736 12.5789 5.85578 12.4605 6.09262 12.3421C6.44788 12.1052 6.80315 11.8684 7.15841 11.75C7.39525 11.6316 7.75051 11.5131 7.98736 11.2763C7.98736 11.2763 8.10578 11.2763 8.10578 11.1579C8.57946 10.0921 9.05315 9.14471 9.40841 8.07892V7.9605C9.28999 7.60524 9.17157 7.36839 9.05315 7.13155C8.93472 6.53945 8.93472 6.06576 8.93472 5.59208C8.93472 5.47366 8.93472 5.35524 8.93472 5.23681C9.05315 4.88155 9.28999 4.76313 9.64525 4.88155C9.88209 4.88155 10.1189 4.99997 10.2374 5.23681C10.3558 5.35524 10.3558 5.59208 10.3558 5.82892C10.3558 5.82892 10.3558 5.94734 10.3558 6.06576ZM11.0663 10.3289C10.8295 10.0921 10.5926 9.85524 10.4742 9.49997C10.2374 9.26313 10.0005 8.90787 9.76367 8.67102C9.52683 9.38155 9.17157 10.2105 8.93472 10.921C9.28999 10.8026 9.64525 10.6842 10.0005 10.5658C10.3558 10.5658 10.711 10.4473 11.0663 10.3289ZM7.75051 11.6316C7.39525 11.75 7.15841 11.8684 6.92157 12.1052C6.5663 12.2237 6.32946 12.4605 5.9742 12.6973C5.85578 12.8158 5.73736 12.9342 5.73736 12.9342C5.61894 13.0526 5.61894 13.0526 5.61894 13.171C5.50051 13.4079 5.73736 13.6447 5.85578 13.5263C5.9742 13.5263 5.9742 13.5263 6.09262 13.4079C6.32946 13.2894 6.44788 13.171 6.5663 13.0526C7.03999 12.6973 7.39525 12.2237 7.75051 11.6316ZM9.52683 7.60524C9.76367 7.01313 9.88209 6.42102 9.88209 5.82892C9.88209 5.59208 9.88209 5.47366 9.88209 5.23681C9.88209 5.11839 9.76367 4.99997 9.64525 4.99997C9.52683 4.99997 9.40841 4.99997 9.28999 4.99997C9.28999 5.23681 9.17157 5.23681 9.17157 5.35523C9.17157 5.47366 9.05315 5.59208 9.05315 5.82892C9.05315 6.06576 9.05315 6.42102 9.17157 6.65787C9.28999 6.89471 9.40841 7.24997 9.52683 7.60524Z" stroke="white" stroke-width="0.4"/>
<path d="M8.93457 16.1315C9.28983 16.1315 9.52668 16.1315 9.76352 16.1315C9.88194 16.1315 10.1188 16.1315 10.2372 16.2499C10.5925 16.3684 10.8293 16.4868 10.9477 16.842C11.0661 17.0789 11.1846 17.3157 11.1846 17.5526C11.1846 17.9078 11.1846 18.3815 11.0661 18.7368C11.0661 18.8552 10.9477 18.9736 10.8293 19.092C10.7109 19.2105 10.3556 19.4473 10.0004 19.4473C9.88194 19.4473 9.76352 19.4473 9.6451 19.4473C9.40825 19.4473 9.17141 19.4473 9.05299 19.4473H8.93457C8.93457 18.3815 8.93457 17.1973 8.93457 16.1315ZM9.40825 16.4868C9.40825 16.6052 9.40825 18.8552 9.40825 18.9736C9.52668 18.9736 9.6451 18.9736 9.76352 18.9736C10.0004 18.9736 10.2372 18.7368 10.3556 18.4999C10.3556 18.3815 10.474 18.3815 10.474 18.2631C10.5925 18.0263 10.5925 17.671 10.474 17.4341C10.474 17.3157 10.474 17.0789 10.3556 16.9605C10.2372 16.7236 10.1188 16.6052 9.88194 16.6052C9.88194 16.4868 9.6451 16.4868 9.40825 16.4868Z" fill="white" stroke="white" stroke-width="0.4"/>
<path d="M6.92121 19.4473C6.68436 19.4473 6.56594 19.4473 6.3291 19.4473C6.3291 19.3289 6.3291 16.1315 6.3291 16.1315C6.3291 16.1315 6.3291 16.1315 6.44752 16.1315C6.68436 16.1315 7.03963 16.1315 7.27647 16.1315C7.39489 16.1315 7.63173 16.1315 7.75015 16.2499C7.86858 16.2499 7.987 16.3684 8.10542 16.4868C8.34226 16.7236 8.34226 16.9605 8.34226 17.3157C8.34226 17.4341 8.34226 17.4341 8.34226 17.5526C8.22384 17.9078 7.987 18.1447 7.63173 18.2631C7.39489 18.2631 7.27647 18.2631 7.03963 18.2631H6.92121C6.92121 18.4999 6.92121 18.7368 6.92121 18.9736C6.92121 18.9736 6.92121 19.2105 6.92121 19.4473ZM6.92121 17.671C7.03963 17.671 7.15805 17.671 7.27647 17.671C7.39489 17.671 7.51331 17.671 7.51331 17.671C7.63173 17.671 7.75015 17.5526 7.75015 17.4341C7.86858 17.1973 7.86858 17.0789 7.75015 16.842C7.75015 16.842 7.75015 16.7236 7.63173 16.7236C7.51331 16.6052 7.51331 16.6052 7.39489 16.6052C7.27647 16.6052 7.03963 16.6052 6.92121 16.6052C6.92121 16.9605 6.92121 17.3157 6.92121 17.671Z" fill="white" stroke="white" stroke-width="0.4"/>
<path d="M12.3685 19.4473C12.1316 19.4473 12.0132 19.4473 11.7764 19.4473C11.7764 19.3289 11.7764 16.1315 11.7764 16.1315C12.3685 16.1315 12.9606 16.1315 13.6711 16.1315C13.6711 16.2499 13.6711 16.3684 13.6711 16.6052C13.5527 16.6052 13.4343 16.6052 13.3158 16.6052C13.1974 16.6052 13.079 16.6052 12.9606 16.6052C12.8422 16.6052 12.7237 16.6052 12.6053 16.6052C12.4869 16.6052 12.3685 16.6052 12.2501 16.6052C12.2501 16.7236 12.2501 17.5526 12.2501 17.671C12.6053 17.671 12.9606 17.671 13.3158 17.671C13.3158 17.7894 13.3158 17.9078 13.3158 18.1447C12.9606 18.1447 12.6053 18.1447 12.2501 18.1447V18.2631C12.3685 18.4999 12.3685 18.9736 12.3685 19.4473C12.3685 19.3289 12.3685 19.4473 12.3685 19.4473Z" fill="white"/>
<path d="M12.3685 19.4473C12.1316 19.4473 12.0132 19.4473 11.7764 19.4473C11.7764 19.3289 11.7764 16.1315 11.7764 16.1315C12.3685 16.1315 12.9606 16.1315 13.6711 16.1315C13.6711 16.2499 13.6711 16.3684 13.6711 16.6052C13.5527 16.6052 13.4343 16.6052 13.3158 16.6052C13.1974 16.6052 13.079 16.6052 12.9606 16.6052C12.8422 16.6052 12.7237 16.6052 12.6053 16.6052C12.4869 16.6052 12.3685 16.6052 12.2501 16.6052C12.2501 16.7236 12.2501 17.5526 12.2501 17.671C12.6053 17.671 12.9606 17.671 13.3158 17.671C13.3158 17.7894 13.3158 17.9078 13.3158 18.1447C12.9606 18.1447 12.6053 18.1447 12.2501 18.1447V18.2631C12.3685 18.4999 12.3685 18.9736 12.3685 19.4473ZM12.3685 19.4473C12.3685 19.3289 12.3685 19.4473 12.3685 19.4473Z" stroke="white" stroke-width="0.4"/>
</svg>
