<svg width="16" height="16" viewBox="0 0 16 16" fill="none" xmlns="http://www.w3.org/2000/svg">
<path d="M12.6494 9.91382C12.3214 9.57232 11.9258 9.38974 11.5065 9.38974C11.0907 9.38974 10.6917 9.56894 10.3502 9.91044L9.28173 10.9755C9.19382 10.9282 9.10591 10.8842 9.02138 10.8403C8.89966 10.7794 8.7847 10.7219 8.68664 10.6611C7.68581 10.0254 6.77627 9.19701 5.90393 8.12518C5.48128 7.59095 5.19726 7.14126 4.99101 6.6848C5.26827 6.43121 5.52524 6.16748 5.77544 5.91389C5.87012 5.81921 5.96479 5.72116 6.05946 5.62649C6.76951 4.91644 6.76951 3.99676 6.05946 3.28671L5.1364 2.36365C5.03158 2.25883 4.92339 2.15063 4.82195 2.04244C4.61908 1.8328 4.40607 1.61641 4.18629 1.41354C3.85832 1.08894 3.4661 0.916504 3.05359 0.916504C2.64109 0.916504 2.24211 1.08894 1.90399 1.41354C1.90061 1.41692 1.90061 1.41692 1.89723 1.4203L0.747629 2.58004C0.314838 3.01284 0.0680119 3.5403 0.0139131 4.15229C-0.0672353 5.1396 0.223546 6.05928 0.446704 6.66113C0.994455 8.1387 1.8127 9.50808 3.03331 10.9755C4.51426 12.7439 6.29615 14.1403 8.33162 15.1242C9.10929 15.4928 10.1473 15.9289 11.3071 16.0033C11.3781 16.0067 11.4524 16.0101 11.5201 16.0101C12.3011 16.0101 12.9571 15.7295 13.471 15.1716C13.4744 15.1648 13.4812 15.1614 13.4845 15.1547C13.6604 14.9416 13.8632 14.7489 14.0762 14.5427C14.2216 14.404 14.3704 14.2586 14.5158 14.1065C14.8505 13.7582 15.0264 13.3525 15.0264 12.9366C15.0264 12.5173 14.8472 12.115 14.5057 11.7769L12.6494 9.91382ZM13.8598 13.4742C13.8565 13.4742 13.8565 13.4776 13.8598 13.4742C13.728 13.6162 13.5927 13.7447 13.4473 13.8867C13.2276 14.0963 13.0044 14.3161 12.7948 14.5629C12.4533 14.9281 12.0509 15.1006 11.5235 15.1006C11.4727 15.1006 11.4186 15.1006 11.3679 15.0972C10.3637 15.0329 9.4305 14.6407 8.7306 14.306C6.81685 13.3795 5.1364 12.0643 3.73997 10.3973C2.58699 9.00767 1.81608 7.72282 1.30552 6.3433C0.991074 5.50138 0.876114 4.84544 0.926832 4.22668C0.960644 3.83108 1.1128 3.50311 1.39343 3.22247L2.54642 2.06949C2.7121 1.91395 2.88792 1.82942 3.06036 1.82942C3.27337 1.82942 3.44581 1.95791 3.55401 2.06611C3.55739 2.06949 3.56077 2.07287 3.56415 2.07625C3.7704 2.26898 3.96651 2.46847 4.17276 2.68148C4.27758 2.78968 4.38578 2.89788 4.49398 3.00945L5.41704 3.93252C5.77544 4.29092 5.77544 4.62228 5.41704 4.98068C5.31898 5.07874 5.22431 5.17679 5.12626 5.27146C4.84224 5.56224 4.57174 5.83274 4.27758 6.09647C4.27082 6.10323 4.26406 6.10662 4.26068 6.11338C3.96989 6.40416 4.02399 6.68818 4.08485 6.88091C4.08824 6.89105 4.09162 6.90119 4.095 6.91134C4.33506 7.4929 4.67318 8.04065 5.18712 8.69322L5.1905 8.6966C6.12371 9.8462 7.10763 10.7422 8.19299 11.4286C8.33162 11.5165 8.47363 11.5875 8.60887 11.6551C8.7306 11.716 8.84556 11.7735 8.94361 11.8343C8.95714 11.8411 8.97066 11.8512 8.98418 11.858C9.09914 11.9155 9.20734 11.9425 9.31892 11.9425C9.59956 11.9425 9.77538 11.7667 9.83286 11.7092L10.9892 10.5529C11.1042 10.4379 11.2868 10.2993 11.4998 10.2993C11.7094 10.2993 11.8819 10.4311 11.9867 10.5461C11.9901 10.5495 11.9901 10.5495 11.9934 10.5529L13.8565 12.4159C14.2047 12.7608 14.2047 13.1158 13.8598 13.4742Z" fill="#6D6E71" stroke="#6D6E71" stroke-width="0.2"/>
<path d="M8.64135 3.80077C9.52722 3.94954 10.3319 4.36881 10.9744 5.01123C11.6168 5.65366 12.0327 6.45838 12.1848 7.34425C12.222 7.5674 12.4147 7.72294 12.6345 7.72294C12.6616 7.72294 12.6852 7.71956 12.7123 7.71618C12.9625 7.6756 13.1282 7.43892 13.0876 7.18871C12.905 6.11688 12.3978 5.13972 11.6235 4.36543C10.8493 3.59114 9.8721 3.08396 8.80026 2.90137C8.55006 2.8608 8.31676 3.02648 8.2728 3.2733C8.22885 3.52013 8.39114 3.76019 8.64135 3.80077Z" fill="#6D6E71" stroke="#6D6E71" stroke-width="0.2"/>
<path d="M15.9963 7.05685C15.6954 5.29188 14.8636 3.68582 13.5856 2.40773C12.3075 1.12964 10.7014 0.297874 8.93644 -0.0030508C8.68961 -0.0470061 8.45631 0.122053 8.41236 0.368879C8.37178 0.619087 8.53746 0.852388 8.78767 0.896343C10.3633 1.16346 11.8003 1.9107 12.9431 3.05016C14.086 4.19299 14.8298 5.63 15.097 7.20563C15.1341 7.42878 15.3269 7.58432 15.5466 7.58432C15.5737 7.58432 15.5974 7.58094 15.6244 7.57756C15.8712 7.54036 16.0403 7.30368 15.9963 7.05685Z" fill="#6D6E71" stroke="#6D6E71" stroke-width="0.2"/>
</svg>
