<svg width="37" height="32" viewBox="0 0 37 32" fill="none" xmlns="http://www.w3.org/2000/svg">
<g clip-path="url(#clip0_432_29196)">
<path d="M32.5662 16.076V11.8558C32.5662 10.4235 31.4535 9.2598 30.0531 9.1511L26.1331 2.30938C25.7686 1.67636 25.1867 1.22238 24.4833 1.03695C23.7863 0.851519 23.0573 0.947431 22.4306 1.3119L9.00814 9.13192H6.6485C5.13935 9.13192 3.91797 10.3532 3.91797 11.8622V28.2312C3.91797 29.7338 5.13935 30.9615 6.6485 30.9615H29.842C31.3448 30.9615 32.5726 29.7402 32.5726 28.2312V24.0111C33.3655 23.7297 33.9346 22.9816 33.9346 22.0928V18.0006C33.9282 17.1118 33.3591 16.3637 32.5662 16.076ZM28.4672 9.13192H22.5201L26.9772 6.5359L28.4672 9.13192ZM26.3058 5.35299L19.8152 9.13192H17.123L25.6343 4.17647L26.3058 5.35299ZM23.1212 2.49481C23.4282 2.31578 23.7927 2.26462 24.1316 2.36053C24.4769 2.45645 24.771 2.68024 24.9501 2.99355L14.4053 9.13192H11.7131L23.1212 2.49481ZM31.2041 28.2312C31.2041 28.9857 30.5902 29.5932 29.842 29.5932H6.6485C5.89393 29.5932 5.28643 28.9793 5.28643 28.2312V11.8622C5.28643 11.1077 5.90032 10.5003 6.6485 10.5003H29.842C30.5966 10.5003 31.2041 11.1141 31.2041 11.8622V15.9545H27.1115C24.8542 15.9545 23.0189 17.7896 23.0189 20.0467C23.0189 22.3038 24.8542 24.139 27.1115 24.139H31.2041V28.2312ZM32.5662 22.0928C32.5662 22.4701 32.2592 22.777 31.8819 22.777H27.1051C25.6024 22.777 24.3746 21.5557 24.3746 20.0467C24.3746 18.5441 25.596 17.3164 27.1051 17.3164H31.8819C32.2592 17.3164 32.5662 17.6233 32.5662 18.0006V22.0928Z" fill="#2B68AB" stroke="#2B68AB" stroke-width="0.6"/>
<path d="M27.1121 18.6775C26.3575 18.6775 25.75 19.2913 25.75 20.0394C25.75 20.7876 26.3639 21.4014 27.1121 21.4014C27.8602 21.4014 28.4741 20.7876 28.4741 20.0394C28.4741 19.2913 27.8602 18.6775 27.1121 18.6775Z" fill="#2B68AB"/>
</g>
<defs>
<clipPath id="clip0_432_29196">
<rect width="36" height="31" fill="white" transform="translate(0.335938 0.285645)"/>
</clipPath>
</defs>
</svg>
