<svg width="24" height="25" viewBox="0 0 24 25" fill="none" xmlns="http://www.w3.org/2000/svg">
<path d="M20.3382 12.8291V10.0173C20.3382 9.06295 19.5968 8.28756 18.6637 8.21513L16.0519 3.65651C15.809 3.23474 15.4213 2.93225 14.9526 2.8087C14.4882 2.68515 14.0024 2.74905 13.5849 2.99189L4.64156 8.20235H3.06934C2.0638 8.20235 1.25 9.01608 1.25 10.0215V20.9281C1.25 21.9293 2.0638 22.7473 3.06934 22.7473H18.5231C19.5244 22.7473 20.3425 21.9336 20.3425 20.9281V18.1163C20.8708 17.9288 21.25 17.4304 21.25 16.8382V14.1115C21.2457 13.5193 20.8665 13.0208 20.3382 12.8291ZM17.607 8.20235H13.6445L16.6143 6.47263L17.607 8.20235ZM16.1669 5.68446L11.8422 8.20235H10.0485L15.7195 4.90055L16.1669 5.68446ZM14.0451 3.78007C14.2496 3.66077 14.4924 3.62669 14.7183 3.6906C14.9483 3.7545 15.1443 3.90362 15.2636 4.11238L8.23764 8.20235H6.44386L14.0451 3.78007ZM19.4307 20.9281C19.4307 21.4309 19.0216 21.8356 18.5231 21.8356H3.06934C2.56657 21.8356 2.1618 21.4266 2.1618 20.9281V10.0215C2.1618 9.51881 2.57084 9.11407 3.06934 9.11407H18.5231C19.0259 9.11407 19.4307 9.52307 19.4307 10.0215V12.7482H16.7038C15.1997 12.7482 13.9769 13.9709 13.9769 15.4748C13.9769 16.9787 15.1997 18.2015 16.7038 18.2015H19.4307V20.9281ZM20.3382 16.8382C20.3382 17.0895 20.1337 17.294 19.8823 17.294H16.6995C15.6982 17.294 14.8802 16.4803 14.8802 15.4748C14.8802 14.4736 15.694 13.6556 16.6995 13.6556H19.8823C20.1337 13.6556 20.3382 13.8601 20.3382 14.1115V16.8382Z" fill="#6D6E71" stroke="#6D6E71" stroke-width="0.5"/>
<path d="M16.7034 14.5625C16.2007 14.5625 15.7959 14.9715 15.7959 15.47C15.7959 15.9684 16.2049 16.3774 16.7034 16.3774C17.2019 16.3774 17.611 15.9684 17.611 15.47C17.611 14.9715 17.2019 14.5625 16.7034 14.5625Z" fill="#6D6E71" stroke="#6D6E71" stroke-width="0.5"/>
</svg>
