<svg width="38" height="38" viewBox="0 0 38 38" fill="none" xmlns="http://www.w3.org/2000/svg">
<path d="M34.8273 18.7425V13.8452C34.8273 12.1831 33.5361 10.8326 31.9109 10.7065L27.362 2.76687C26.939 2.03227 26.2637 1.50544 25.4474 1.29026C24.6385 1.07507 23.7925 1.18637 23.0653 1.60932L7.489 10.6842H4.75072C2.99941 10.6842 1.58203 12.1015 1.58203 13.8526V32.8483C1.58203 34.592 2.99941 36.0167 4.75072 36.0167H31.666C33.4099 36.0167 34.8347 34.5994 34.8347 32.8483V27.951C35.7549 27.6245 36.4154 26.7563 36.4154 25.7249V20.976C36.4079 19.9446 35.7475 19.0764 34.8273 18.7425ZM30.0706 10.6842H23.1692L28.3415 7.67161L30.0706 10.6842ZM27.5623 6.29888L20.0302 10.6842H16.906L26.7831 4.93356L27.5623 6.29888ZM23.8668 2.98206C24.223 2.77429 24.6459 2.71493 25.0392 2.82623C25.44 2.93754 25.7813 3.19724 25.9891 3.56083L13.7522 10.6842H10.628L23.8668 2.98206ZM33.2467 32.8483C33.2467 33.7239 32.5343 34.4288 31.666 34.4288H4.75072C3.87506 34.4288 3.17009 33.7164 3.17009 32.8483V13.8526C3.17009 12.977 3.88249 12.2721 4.75072 12.2721H31.666C32.5417 12.2721 33.2467 12.9845 33.2467 13.8526V18.6015H28.4973C25.8778 18.6015 23.748 20.7311 23.748 23.3504C23.748 25.9698 25.8778 28.0994 28.4973 28.0994H33.2467V32.8483ZM34.8273 25.7249C34.8273 26.1627 34.4711 26.5189 34.0333 26.5189H28.4899C26.746 26.5189 25.3212 25.1016 25.3212 23.3504C25.3212 21.6067 26.7386 20.182 28.4899 20.182H34.0333C34.4711 20.182 34.8273 20.5382 34.8273 20.976V25.7249Z" fill="#6D6E71"/>
<path d="M28.4986 21.7615C27.6229 21.7615 26.918 22.4738 26.918 23.342C26.918 24.2101 27.6304 24.9225 28.4986 24.9225C29.3668 24.9225 30.0792 24.2101 30.0792 23.342C30.0792 22.4738 29.3668 21.7615 28.4986 21.7615Z" fill="#6D6E71"/>
</svg>
