<svg width="37" height="32" viewBox="0 0 37 32" fill="none" xmlns="http://www.w3.org/2000/svg">
<g clip-path="url(#clip0_432_29295)">
<circle cx="18.3359" cy="15.7856" r="14" stroke="#6D6E71" stroke-width="2.2"/>
<path d="M22.9805 11.9536C22.9805 12.5851 22.8372 13.145 22.5508 13.6333C22.2708 14.1151 21.9388 14.5838 21.5547 15.0396C20.526 16.2505 19.9108 16.9927 19.709 17.2661C19.5137 17.5396 19.416 17.8228 19.416 18.1157V18.8774C19.416 18.9751 19.377 19.063 19.2988 19.1411C19.2207 19.2192 19.1263 19.2583 19.0156 19.2583H17.3555C17.1016 19.2583 16.9746 19.1313 16.9746 18.8774V18.1157C16.9746 17.4907 17.0527 16.9829 17.209 16.5923C17.3652 16.2017 17.681 15.7297 18.1562 15.1763C18.8659 14.356 19.3509 13.7798 19.6113 13.4478C19.8783 13.1157 20.0117 12.6177 20.0117 11.9536V11.6313C20.0117 11.1431 19.6276 10.8989 18.8594 10.8989C18.4232 10.8989 17.9349 10.9217 17.3945 10.9673L15.8516 11.1138H15.7734C15.5456 11.1138 15.4316 10.9673 15.4316 10.6743V9.43408C15.4316 9.21273 15.474 9.06299 15.5586 8.98486C15.6432 8.90023 16.0306 8.80257 16.7207 8.69189C17.4108 8.57471 18.1237 8.51611 18.8594 8.51611C20.3242 8.51611 21.3757 8.76676 22.0137 9.26807C22.6582 9.76937 22.9805 10.5571 22.9805 11.6313V11.9536ZM19.4941 23.1548C19.4941 23.2655 19.4551 23.3566 19.377 23.4282C19.2988 23.4998 19.2044 23.5356 19.0938 23.5356H17.2969C17.1862 23.5356 17.0918 23.4998 17.0137 23.4282C16.9355 23.3566 16.8965 23.2655 16.8965 23.1548V20.8989C16.8965 20.7882 16.9355 20.6938 17.0137 20.6157C17.0918 20.5376 17.1862 20.4985 17.2969 20.4985H19.0938C19.2044 20.4985 19.2988 20.5376 19.377 20.6157C19.4551 20.6938 19.4941 20.7882 19.4941 20.8989V23.1548Z" fill="#6D6E71"/>
</g>
<defs>
<clipPath id="clip0_432_29295">
<rect width="36" height="31" fill="white" transform="translate(0.335938 0.285645)"/>
</clipPath>
</defs>
</svg>
