<svg width="32" height="27" viewBox="0 0 32 27" fill="none" xmlns="http://www.w3.org/2000/svg">
<path d="M21.609 26.9057C21.7057 26.7172 21.754 26.5288 21.8507 26.3403C22.7691 24.6439 23.7842 22.9476 24.6543 21.157C25.7178 19.0837 26.4428 16.8691 26.8296 14.5131C26.5395 14.5602 26.2978 14.6544 26.0078 14.7015C22.6725 15.4083 19.2888 13.9476 17.6453 11.0261C16.0501 8.1518 16.5335 4.52353 18.9504 2.21463C21.1256 0.141329 23.7359 -0.471236 26.5879 0.376932C29.4398 1.2251 31.2283 3.20416 31.8084 6.0785C32.0501 7.20939 31.9534 8.43452 31.9051 9.61253C31.7601 12.1099 31.2767 14.5602 30.4066 16.9162C29.1498 20.4502 27.1196 23.5131 23.8326 25.6335C23.2525 26.0104 22.7208 26.3874 22.1407 26.7644C21.9957 26.8586 21.8024 26.9057 21.6573 27C21.6573 27 21.6573 26.9528 21.609 26.9057Z" fill="#BCBDBE"/>
<path d="M4.83554 26.9058C4.93222 26.7173 4.98056 26.4817 5.12557 26.2932C6.044 24.5497 7.05911 22.8534 7.9292 21.1099C8.94431 19.0838 9.62104 16.9162 10.0561 14.7016C10.0561 14.6544 10.0561 14.6073 10.0561 14.5131C9.66938 14.6073 9.28267 14.7016 8.84763 14.7487C4.73887 15.5026 0.678443 12.6283 0.0983827 8.57591C-0.530016 4.61779 2.17693 0.848161 6.18902 0.141354C10.9745 -0.659693 15.18 2.68586 15.2283 7.44502C15.2766 11.3089 14.5999 15.0314 13.0531 18.5654C11.7963 21.4398 9.91107 23.8429 7.25246 25.5864C6.62406 26.0105 6.044 26.3874 5.4156 26.8115C5.27059 26.9058 5.07724 26.9529 4.93222 27C4.88388 26.9529 4.83554 26.9529 4.83554 26.9058Z" fill="#BCBDBE"/>
</svg>
