<svg width="16" height="19" viewBox="0 0 16 19" fill="none" xmlns="http://www.w3.org/2000/svg">
<g clip-path="url(#clip0_644_45209)">
<path d="M12.8421 0H3.15789C1.41642 0 0 1.38442 0 3.08632V15.0189C0 16.7213 1.41642 18.1053 3.15789 18.1053H12.8421C14.5836 18.1053 16 16.7213 16 15.0189V3.08632C16 1.38442 14.5836 0 12.8421 0Z" fill="#231F20"/>
<path d="M11.7891 6.73682H4.21012C3.97769 6.73682 3.78906 6.92545 3.78906 7.15787V7.99997C3.78906 8.2324 3.97769 8.42103 4.21012 8.42103H11.7891C12.0219 8.42103 12.2101 8.2324 12.2101 7.99997V7.15787C12.2101 6.92545 12.0219 6.73682 11.7891 6.73682Z" fill="white"/>
<path d="M11.7891 9.68433H4.21012C3.97769 9.68433 3.78906 9.87254 3.78906 10.1054V10.9475C3.78906 11.1803 3.97769 11.3685 4.21012 11.3685H11.7891C12.0219 11.3685 12.2101 11.1803 12.2101 10.9475V10.1054C12.2101 9.87254 12.0219 9.68433 11.7891 9.68433Z" fill="white"/>
<path d="M11.7891 12.6316H4.21012C3.97769 12.6316 3.78906 12.8198 3.78906 13.0526V13.8947C3.78906 14.1276 3.97769 14.3158 4.21012 14.3158H11.7891C12.0219 14.3158 12.2101 14.1276 12.2101 13.8947V13.0526C12.2101 12.8198 12.0219 12.6316 11.7891 12.6316Z" fill="white"/>
<path d="M11.7891 3.78955H4.21012C3.97769 3.78955 3.78906 3.97818 3.78906 4.2106V5.05271C3.78906 5.28513 3.97769 5.47376 4.21012 5.47376H11.7891C12.0219 5.47376 12.2101 5.28513 12.2101 5.05271V4.2106C12.2101 3.97818 12.0219 3.78955 11.7891 3.78955Z" fill="white"/>
</g>
<defs>
<clipPath id="clip0_644_45209">
<rect width="16" height="18.1053" fill="white"/>
</clipPath>
</defs>
</svg>
