<svg width="16" height="16" viewBox="0 0 16 16" fill="none" xmlns="http://www.w3.org/2000/svg">
<path d="M13.6555 2.34449C12.1469 0.832653 10.1355 0 8 0C5.86449 0 3.85306 0.832653 2.34449 2.34449C0.835918 3.85633 0 5.86449 0 8C0 10.1355 0.832653 12.1469 2.34449 13.6555C3.85633 15.1641 5.86449 16 8 16C10.1355 16 12.1469 15.1673 13.6555 13.6555C15.1641 12.1437 16 10.1355 16 8C16 5.86449 15.1673 3.85306 13.6555 2.34449ZM15.2751 7.64082H12.1731C12.1437 6.40653 11.9706 5.21796 11.6669 4.16327C12.258 3.85959 12.8098 3.47755 13.3159 3.02694C14.4588 4.24816 15.1869 5.86122 15.2751 7.64082ZM8.35918 8.35918H11.458C11.4318 9.49551 11.2751 10.5829 11.0041 11.5559C10.1682 11.2196 9.27673 11.0237 8.35918 10.9812V8.35918ZM12.8 2.52735C12.382 2.89633 11.9249 3.2098 11.4416 3.47102C11.3176 3.1249 11.1771 2.79837 11.0204 2.49143C10.7102 1.87755 10.3576 1.37469 9.96898 0.989388C11.0302 1.28653 11.9935 1.81878 12.8 2.52735ZM8.35918 0.829388C9.10694 0.995918 9.81224 1.6849 10.3804 2.80816C10.5339 3.11184 10.671 3.4351 10.7918 3.77796C10.0245 4.09469 9.2049 4.28082 8.35918 4.32327V0.829388ZM11.0073 4.46694C11.2751 5.43347 11.4286 6.51429 11.4547 7.64408H8.35918V5.0449C9.28 5.00245 10.1714 4.80327 11.0073 4.46694ZM7.64082 7.64082H4.54204C4.56816 6.51102 4.72163 5.4302 4.98939 4.46367C5.82531 4.80327 6.72 4.99918 7.63755 5.03837V7.64082H7.64082ZM7.64408 0.829388V4.32327C6.79837 4.28082 5.97551 4.09469 5.21143 3.77796C5.33224 3.4351 5.46939 3.11184 5.62286 2.80816C6.19102 1.6849 6.89633 0.995918 7.64408 0.829388ZM6.03429 0.989388C5.64571 1.37469 5.29306 1.88082 4.98286 2.49143C4.82939 2.79837 4.68898 3.1249 4.56163 3.47102C4.07837 3.2098 3.62449 2.89633 3.20327 2.52735C4.0098 1.81878 4.97306 1.28653 6.03429 0.989388ZM2.68735 3.02694C3.19347 3.47755 3.74531 3.85633 4.33633 4.16327C4.03265 5.22122 3.85633 6.40653 3.8302 7.64082H0.728163C0.816326 5.86122 1.54449 4.24816 2.68735 3.02694ZM0.728163 8.35918H3.8302C3.85959 9.60326 4.03592 10.7951 4.34286 11.8563C3.7551 12.16 3.20326 12.5355 2.70041 12.9861C1.54776 11.7616 0.816326 10.1453 0.728163 8.35918ZM3.21633 13.4857C3.63429 13.12 4.08816 12.8065 4.56816 12.5486C4.69224 12.8849 4.82939 13.2082 4.98286 13.5086C5.29306 14.1224 5.64571 14.6253 6.03429 15.0139C4.97959 14.7167 4.01959 14.1878 3.21633 13.4857ZM7.64408 15.1706C6.89633 15.0041 6.19102 14.3151 5.62286 13.1918C5.47265 12.8947 5.33878 12.578 5.21796 12.2416C5.98204 11.9249 6.80163 11.7388 7.64408 11.6996V15.1706ZM4.99918 11.5559C4.72816 10.5829 4.57143 9.49551 4.54531 8.35918H7.64408V10.9812C6.72653 11.0204 5.8351 11.2163 4.99918 11.5559ZM8.36245 15.1706V11.6996C9.2049 11.742 10.0245 11.9249 10.7886 12.2416C10.6678 12.578 10.5339 12.8947 10.3837 13.1918C9.81551 14.3151 9.1102 15.0041 8.36245 15.1706ZM9.97224 15.0106C10.3608 14.6253 10.7135 14.1192 11.0237 13.5053C11.1771 13.2049 11.3143 12.8816 11.4384 12.5453C11.9184 12.8033 12.3722 13.1167 12.7902 13.4824C11.9869 14.1878 11.0269 14.7167 9.97224 15.0106ZM13.3094 12.9861C12.8065 12.5388 12.2547 12.16 11.6669 11.8563C11.9739 10.7951 12.1502 9.6 12.1796 8.35918H15.2816C15.1902 10.1453 14.4588 11.7616 13.3094 12.9861Z" fill="#6D6E71" stroke="#6D6E71" stroke-width="0.1"/>
</svg>
