<svg width="8" height="8" viewBox="0 0 8 8" fill="none" xmlns="http://www.w3.org/2000/svg">
<path d="M4.275 4L6.6375 1.6375C6.7875 1.4875 6.7875 1.25 6.6375 1.1125C6.4875 0.9625 6.25 0.9625 6.1125 1.1125L3.75 3.4625L1.3875 1.1125C1.2375 0.9625 1 0.9625 0.8625 1.1125C0.7125 1.2625 0.7125 1.5 0.8625 1.6375L3.2125 4L0.8625 6.35C0.7125 6.5 0.7125 6.7375 0.8625 6.875C0.9375 6.9625 1.025 7 1.125 7C1.225 7 1.3125 6.9625 1.3875 6.8875L3.75 4.525L6.1125 6.8875C6.1875 6.9625 6.2875 7 6.375 7C6.4625 7 6.5625 6.9625 6.6375 6.8875C6.7875 6.7375 6.7875 6.5 6.6375 6.3625L4.275 4Z" fill="white" stroke="white"/>
</svg>
