<svg width="33" height="33" viewBox="0 0 33 33" fill="none" xmlns="http://www.w3.org/2000/svg">
<circle cx="16.5" cy="16.5" r="16.5" fill="#35BAE7"/>
<path d="M22.6523 11.259L20.3887 22.6623C20.3887 22.6623 20.0707 23.4548 19.2023 23.0751L13.9823 19.0747L12.0841 18.1589L8.89046 17.0816C8.89046 17.0816 8.40168 16.9061 8.35422 16.5264C8.30677 16.1468 8.90944 15.9427 8.90944 15.9427L21.613 10.96C21.6083 10.96 22.6523 10.4997 22.6523 11.259Z" fill="white"/>
<path d="M13.6778 22.349C13.6778 22.349 13.526 22.3348 13.3361 21.7321C13.1463 21.1294 11.6562 17.8219 11.6562 17.8219L19.6286 13.0764C19.6286 13.0764 20.2977 12.8297 20.2787 13.0954C20.2787 13.0954 20.3594 13.1429 20.1221 13.3659C19.8849 13.5889 14.1998 18.8943 14.1998 18.8943L13.6778 22.349Z" fill="#38BAE6"/>
<path d="M15.9997 20.5269L13.7598 22.5817C13.7598 22.5817 13.7741 22.5295 13.5938 22.4536L13.9971 18.7996" fill="white"/>
</svg>
