<svg width="37" height="22" viewBox="0 0 37 22" fill="none" xmlns="http://www.w3.org/2000/svg">
<path d="M-nan -nanL31.4228 11.36C31.423 10.2723 31.8505 9.22818 32.6131 8.45259C33.1438 7.91285 33.8073 7.53321 34.5282 7.34597C35.0563 7.20881 35.5 6.77597 35.5 6.23034V2.51416C35.5 1.96188 35.0523 1.51416 34.5 1.51416H2.5C1.94772 1.51416 1.5 1.96188 1.5 2.51416V7.14258C1.5 7.1817 1.53171 7.21341 1.57083 7.21341V7.21341C2.67095 7.21341 3.72601 7.65043 4.50391 8.42833C5.28181 9.20623 5.71883 10.2613 5.71883 11.3614C5.71883 12.4615 5.28181 13.5166 4.50391 14.2945C3.72601 15.0724 2.67095 15.5094 1.57083 15.5094V15.5094C1.53171 15.5094 1.5 15.5411 1.5 15.5802V19.0725C1.5 19.6248 1.94772 20.0725 2.5 20.0725H34.5C35.0523 20.0725 35.5 19.6248 35.5 19.0725V16.4896C35.5 15.944 35.0563 15.5112 34.5282 15.374C33.8073 15.1868 33.1438 14.8071 32.6131 14.2674C31.8505 13.4918 31.423 12.4477 31.4228 11.36L-nan -nanL-nan -nanZ" stroke="#6D6E71" stroke-width="2" stroke-miterlimit="10"/>
<path d="M24.5938 1.51416V20.0725" stroke="#6D6E71" stroke-width="2" stroke-miterlimit="10" stroke-dasharray="1.79 1.79"/>
</svg>
