<svg width="16" height="18" viewBox="0 0 16 18" fill="none" xmlns="http://www.w3.org/2000/svg">
<path d="M15.9958 12.9471C15.9917 12.8974 15.9792 12.856 15.9667 12.8105C15.9542 12.7732 15.95 12.7318 15.9333 12.6945C15.9167 12.6572 15.8917 12.6282 15.8667 12.5951C15.8375 12.5578 15.8167 12.5164 15.7792 12.4874C15.7708 12.4791 15.7667 12.4708 15.7625 12.4667C11.2667 8.71814 4.7375 8.71814 0.2375 12.4667C0.229167 12.4749 0.225 12.4832 0.220833 12.4874C0.1875 12.5205 0.1625 12.5578 0.133333 12.5992C0.1125 12.6323 0.0833333 12.6613 0.0666667 12.6945C0.05 12.7318 0.0458333 12.769 0.0333333 12.8105C0.0208333 12.856 0.00833333 12.8974 0.00416667 12.9471C0.00833333 12.9554 0 12.9637 0 12.9761V16.2897C0 17.0187 0.6 17.6152 1.33333 17.6152H14.6667C15.4 17.6152 16 17.0187 16 16.2897V12.9761C16 12.9637 15.9958 12.9596 15.9958 12.9471Z" fill="#231F20"/>
<path d="M8 8.33718C10.2091 8.33718 12 6.55692 12 4.36085C12 2.16479 10.2091 0.384521 8 0.384521C5.79086 0.384521 4 2.16479 4 4.36085C4 6.55692 5.79086 8.33718 8 8.33718Z" fill="#231F20"/>
</svg>
