<svg width="31" height="32" viewBox="0 0 31 32" fill="none" xmlns="http://www.w3.org/2000/svg">
<path d="M30.2612 23.3307C30.2535 23.2384 30.2305 23.1615 30.2074 23.0769C30.1843 23.0077 30.1766 22.9307 30.1459 22.8615C30.1151 22.7923 30.0689 22.7384 30.0228 22.6769C29.9689 22.6077 29.9305 22.5307 29.8612 22.4769C29.8459 22.4615 29.8382 22.4461 29.8305 22.4384C21.5305 15.4769 9.47662 15.4769 1.16893 22.4384C1.15355 22.4538 1.14585 22.4692 1.13816 22.4769C1.07662 22.5384 1.03047 22.6077 0.976623 22.6846C0.938161 22.7461 0.884315 22.8 0.853546 22.8615C0.822776 22.9307 0.815084 23 0.792007 23.0769C0.76893 23.1615 0.745853 23.2384 0.738161 23.3307C0.745853 23.3461 0.730469 23.3615 0.730469 23.3846V29.5384C0.730469 30.8923 1.83816 32 3.19201 32H27.8074C29.1612 32 30.2689 30.8923 30.2689 29.5384V23.3846C30.2689 23.3615 30.2612 23.3538 30.2612 23.3307Z" fill="white"/>
<path d="M15.5018 14.7694C19.5802 14.7694 22.8864 11.4631 22.8864 7.38474C22.8864 3.30633 19.5802 0.00012207 15.5018 0.00012207C11.4234 0.00012207 8.11719 3.30633 8.11719 7.38474C8.11719 11.4631 11.4234 14.7694 15.5018 14.7694Z" fill="white"/>
</svg>
