<svg width="41" height="35" viewBox="0 0 41 35" fill="none" xmlns="http://www.w3.org/2000/svg">
<path d="M33.9633 24.7032L33.9746 24.7145L33.9798 24.722C33.9871 24.7327 33.9969 24.7467 34.0079 24.7621C34.0184 24.7767 34.0309 24.7936 34.045 24.812L34.0513 24.8202C34.057 24.8434 34.0652 24.8751 34.0764 24.9114L34.0803 24.9253L34.0872 24.9509C34.0913 24.9661 34.0936 24.9752 34.0951 24.9815C34.0952 24.9823 34.0954 24.983 34.0955 24.9836C34.0957 24.9856 34.0959 24.9875 34.096 24.9895C34.0972 25.0026 34.0985 25.0152 34.1 25.0273V30.9996C34.1 31.8317 33.4154 32.5163 32.5833 32.5163H8.41667C7.58456 32.5163 6.9 31.8317 6.9 30.9996V25.0473C6.9023 25.0316 6.90431 25.0151 6.90586 24.998C6.90673 24.9885 6.90746 24.9787 6.90804 24.9688C6.90928 24.964 6.91082 24.9581 6.91276 24.9509L6.91974 24.9253L6.92603 24.9024C6.93297 24.8786 6.93877 24.8568 6.94353 24.8381C6.95675 24.82 6.97257 24.7976 6.98936 24.772L6.99949 24.7574L7.01619 24.7336C7.02637 24.7191 7.03307 24.7098 7.03813 24.7031C7.04016 24.7004 7.04169 24.6984 7.04277 24.697C7.05357 24.686 7.0633 24.6756 7.07192 24.666C14.8704 18.1821 26.1366 18.1823 33.9273 24.6653C33.9383 24.6775 33.9504 24.6902 33.9633 24.7032ZM34.0905 24.8718C34.0905 24.8719 34.0905 24.8719 34.0904 24.8718L34.0905 24.8718ZM7.03666 24.7032L7.03237 24.6989L7.03666 24.7032ZM6.78196 24.4485L6.40632 24.0729L6.78195 24.4485L6.78196 24.4485Z" stroke="#6D6E71" stroke-width="1.8"/>
<path d="M26.85 9.25C26.85 12.757 24.007 15.6 20.5 15.6C16.993 15.6 14.15 12.757 14.15 9.25C14.15 5.74299 16.993 2.9 20.5 2.9C24.007 2.9 26.85 5.74299 26.85 9.25Z" stroke="#6D6E71" stroke-width="1.8"/>
</svg>
