<svg width="30" height="32" viewBox="0 0 30 32" fill="none" xmlns="http://www.w3.org/2000/svg">
<path d="M28.6176 22.9527C28.6242 22.9622 28.6321 22.9735 28.6408 22.9855C28.646 22.9928 28.6517 23.0006 28.6578 23.0089C28.662 23.0242 28.6668 23.041 28.6723 23.0589L28.6751 23.0693L28.6818 23.0935C28.6827 23.097 28.6835 23.1 28.6842 23.1026C28.6847 23.1083 28.6853 23.114 28.6859 23.1196V29.0773C28.6859 29.7713 28.1133 30.3439 27.4193 30.3439H3.2526C2.55856 30.3439 1.98594 29.7713 1.98594 29.0773V23.142C1.98778 23.1278 1.98941 23.1132 1.99077 23.0983C1.99109 23.0948 1.99139 23.0913 1.99168 23.0878L1.99673 23.0692L2.00254 23.0481C2.00498 23.0397 2.0073 23.0315 2.00948 23.0236C2.01679 23.0131 2.02446 23.0017 2.03235 22.9897L2.04051 22.978L2.05656 22.9551C2.06223 22.947 2.06634 22.9413 2.06934 22.9372C2.07334 22.933 2.0772 22.9289 2.08092 22.9248C9.78199 16.5326 20.8973 16.5329 28.5904 22.9243C28.599 22.9336 28.6081 22.9431 28.6176 22.9527ZM2.18547 22.7951C2.18554 22.795 2.18552 22.7951 2.18542 22.7952L2.18547 22.7951ZM1.92775 23.3875C1.92767 23.3877 1.92828 23.3858 1.9298 23.3812C1.92859 23.385 1.92783 23.3873 1.92775 23.3875Z" stroke="#6D6E71" stroke-width="2.3"/>
<path d="M21.4359 7.32764C21.4359 10.6966 18.7049 13.4276 15.3359 13.4276C11.967 13.4276 9.23594 10.6966 9.23594 7.32764C9.23594 3.9587 11.967 1.22764 15.3359 1.22764C18.7049 1.22764 21.4359 3.9587 21.4359 7.32764Z" stroke="#6D6E71" stroke-width="2.3"/>
</svg>
