<svg width="33" height="33" viewBox="0 0 33 33" fill="none" xmlns="http://www.w3.org/2000/svg">
<circle cx="16.5" cy="16.5" r="16.5" fill="#4680C2"/>
<path fill-rule="evenodd" clip-rule="evenodd" d="M23.8624 21.9999H22.1177C21.4554 21.9999 21.2535 21.4779 20.0662 20.2812C19.0324 19.2853 18.572 19.1488 18.3216 19.1488C17.9662 19.1488 17.8612 19.2532 17.8612 19.7351V21.3012C17.8612 21.7188 17.7239 21.9758 16.6093 21.9758C14.7596 21.9758 12.7081 20.8595 11.2704 18.7874C9.08962 15.7596 8.5 13.4867 8.5 13.0129C8.5 12.7559 8.605 12.5229 9.08962 12.5229H10.8423C11.2865 12.5229 11.4562 12.7237 11.6258 13.1976C12.49 15.6793 13.9358 17.8557 14.5254 17.8557C14.7435 17.8557 14.8485 17.7513 14.8485 17.1972V14.6272C14.7839 13.4466 14.1539 13.3421 14.1539 12.9245C14.1539 12.7237 14.3235 12.5229 14.5981 12.5229H17.3443C17.7158 12.5229 17.8531 12.7237 17.8531 13.1655V16.6189C17.8531 16.9884 18.0227 17.1249 18.1277 17.1249C18.3458 17.1249 18.5316 16.9884 18.9435 16.5868C20.1954 15.1893 21.1001 13.0289 21.1001 13.0289C21.2212 12.78 21.4231 12.539 21.8593 12.539H23.6039C24.1289 12.539 24.2501 12.8121 24.1289 13.1815C23.9108 14.1935 21.7704 17.1972 21.7704 17.1972C21.5847 17.5024 21.5201 17.6389 21.7704 17.9762C21.9562 18.2252 22.5701 18.7553 22.9739 19.2211C23.717 20.0644 24.2985 20.7711 24.452 21.261C24.6135 21.7509 24.3551 21.9999 23.8624 21.9999Z" fill="white"/>
</svg>
