<svg width="22" height="23" viewBox="0 0 22 23" fill="none" xmlns="http://www.w3.org/2000/svg">
<path d="M21.3875 2.55591H11.6094V19.6692H21.3875C21.7541 19.6692 21.9986 19.4248 21.9986 19.0581V3.1671C21.9986 2.80038 21.7541 2.55591 21.3875 2.55591Z" fill="#2196F3"/>
<path d="M11.6094 5.61182H20.1652V6.8342H11.6094V5.61182ZM11.6094 8.05658H20.1652V9.27896H11.6094V8.05658ZM11.6094 10.5013H20.1652V11.7237H11.6094V10.5013ZM11.6094 12.9461H20.1652V14.1685H11.6094V12.9461ZM11.6094 15.3909H20.1652V16.6133H11.6094V15.3909Z" fill="white"/>
<path d="M12.8338 22.114L0 19.6692V2.55585L12.8338 0.111084V22.114Z" fill="#0D47A1"/>
<path d="M9.28758 15.391H7.63752L6.53749 9.89027C6.47637 9.58467 6.41526 9.27908 6.41526 8.91236C6.41526 9.27908 6.35415 9.64579 6.29303 9.89027L5.13188 15.391H3.42072L1.64844 6.83431H3.29849L4.21519 12.5184C4.2763 12.7629 4.2763 13.1296 4.33741 13.4963C4.33741 13.1907 4.39853 12.824 4.45964 12.5184L5.6819 6.83431H7.27084L8.37088 12.5795C8.43199 12.7629 8.43199 13.0685 8.49311 13.4963C8.49311 13.1907 8.55422 12.8851 8.61533 12.5184L9.53203 6.77319H10.9987L9.28758 15.391Z" fill="white"/>
</svg>
