<svg width="20" height="18" viewBox="0 0 20 18" fill="none" xmlns="http://www.w3.org/2000/svg">
<path d="M1.66667 2.61108C0.75 2.61108 0 3.36108 0 4.27775V15.9444C0 16.8611 0.75 17.6111 1.66667 17.6111H18.3333C19.25 17.6111 20 16.8611 20 15.9444V4.27775C20 3.36108 19.25 2.61108 18.3333 2.61108H1.66667Z" fill="#E67E22"/>
<path d="M1.66667 1.77783C0.75 1.77783 0 2.52783 0 3.4445V15.1112C0 16.0278 0.75 16.7778 1.66667 16.7778H18.3333C19.25 16.7778 20 16.0278 20 15.1112V3.4445C20 2.52783 19.25 1.77783 18.3333 1.77783H1.66667Z" fill="#F39C12"/>
<path d="M1.66667 0.944336C0.75 0.944336 0 1.69434 0 2.611V14.2777C0 15.1943 0.75 15.9443 1.66667 15.9443H18.3333C19.25 15.9443 20 15.1943 20 14.2777V2.611C20 1.69434 19.25 0.944336 18.3333 0.944336H1.66667Z" fill="#E67E22"/>
<path d="M1.66667 0.111084C0.75 0.111084 0 0.861084 0 1.77775V13.4444C0 14.3611 0.75 15.1111 1.66667 15.1111H18.3333C19.25 15.1111 20 14.3611 20 13.4444V1.77775C20 0.861084 19.25 0.111084 18.3333 0.111084H1.66667Z" fill="#F1C40F"/>
<path d="M13.332 0.111084V0.944417V11.7778C13.332 12.6944 14.082 13.4444 14.9987 13.4444C15.9154 13.4444 16.6654 12.6944 16.6654 11.7778V0.944417V0.111084H13.332Z" fill="#34495E"/>
<path d="M15.0013 0.111084V0.944417H15.8346V0.111084H15.0013ZM15.0013 0.944417H14.168V1.77775H15.0013V0.944417ZM15.0013 1.77775V2.61108H15.8346V1.77775H15.0013ZM15.0013 2.61108H14.168V3.44442H15.0013V2.61108ZM15.0013 3.44442V4.27775H15.8346V3.44442H15.0013ZM15.0013 4.27775H14.168V5.11108H15.0013V4.27775ZM15.0013 5.11108V5.94442H15.8346V5.11108H15.0013ZM15.0013 5.94442H14.168V6.77775H15.0013V5.94442ZM15.0013 6.77775V7.61108H15.8346V6.77775H15.0013ZM15.0013 7.61108H14.168V8.44442H15.0013V7.61108ZM15.0013 8.44442V9.27775H15.8346V8.44442H15.0013ZM15.0013 9.27775H14.168V10.1111H15.0013V9.27775ZM15.0013 10.1111V10.9444H15.8346V10.1111H15.0013ZM15.0013 10.9444H14.168V11.7778H15.0013V10.9444ZM15.0013 11.7778V12.6111H15.8346V11.7778H15.0013Z" fill="#7F8C8D"/>
<path d="M14.168 0.111084V0.944417H15.0013V0.111084H14.168ZM14.168 1.77775V2.61108H15.0013V1.77775H14.168ZM14.168 3.44442V4.27775H15.0013V3.44442H14.168ZM14.168 5.11108V5.94442H15.0013V5.11108H14.168ZM14.168 6.77775V7.61108H15.0013V6.77775H14.168ZM14.168 8.44442V9.27775H15.0013V8.44442H14.168ZM14.168 10.1111V10.9444H15.0013V10.1111H14.168ZM14.168 11.7778V12.6111H15.0013V11.7778H14.168Z" fill="#BDC3C7"/>
</svg>
